<svg width="1069" height="333" viewBox="0 0 1069 333" fill="none" xmlns="http://www.w3.org/2000/svg">
<path d="M0 62.0979L1059 0L1044.99 333L0 302.727L0 62.0979Z" fill="#A66CFF"/>
<path d="M291.18 148.35C280.13 148.35 274.01 164.84 274.52 181.33C274.52 182.18 274.52 183.03 274.69 183.88C286.93 179.29 306.48 185.41 306.82 171.64C306.99 163.48 301.04 148.35 291.18 148.35ZM291.18 138.66C308.86 138.66 325.18 151.75 325.01 171.13C324.84 195.27 286.59 185.07 275.71 191.87C282.34 223.15 313.62 212.61 316.17 198.16L325.86 202.41C308.69 239.47 251.91 228.93 252.08 181.5C252.08 160.08 265.17 138.66 291.18 138.66ZM378.292 199.35V182.69C372.682 179.12 363.672 174.7 358.402 178.27C349.732 184.22 351.092 204.62 361.972 206.49C368.432 207.68 374.042 204.28 378.292 199.35ZM378.292 212.78C373.022 219.41 366.052 224.51 358.062 224.85C326.102 225.87 325.422 166.37 360.612 170.11C366.902 170.79 372.852 172.83 378.292 175.89V162.8C377.952 145.46 355.852 145.29 342.762 160.93L338.342 150.9C353.982 130.84 402.432 136.11 402.432 157.87V207.68C402.432 211.42 405.492 214.48 409.062 214.48H411.612V224H396.992C392.742 224 388.662 222.47 385.602 219.58L378.292 212.78ZM419.622 207.51C413.502 194.42 434.922 190.34 435.262 204.11C436.112 222.47 484.052 214.14 453.622 193.4C445.972 188.3 436.282 183.03 429.312 177.25C418.432 168.07 416.562 158.21 420.812 150.73C431.012 133.39 473.852 133.56 482.862 154.64C488.812 167.56 468.922 171.64 467.222 158.21C464.842 140.7 416.902 146.31 448.862 168.24C456.682 173.51 466.202 179.12 473.002 184.9C484.222 194.25 486.432 203.77 482.182 211.25C472.662 228.59 429.482 229.1 419.622 207.51ZM522.209 216.18L503.679 155.83C502.319 151.07 497.899 147.84 493.139 147.84H489.229V138.32H532.749V147.84H526.459L543.969 204.62L560.799 147.84H554.509V138.32H582.899V147.84H579.159C574.229 147.84 569.809 151.07 568.449 155.83L548.389 223.32L544.139 237.6C540.739 250.35 524.929 262.42 510.819 254.94C505.889 252.73 502.999 247.63 503.509 242.19C504.019 236.92 507.929 232.33 513.199 231.14C518.469 229.78 523.909 231.99 526.799 236.58C529.689 240.83 533.429 239.13 534.959 234.88L538.189 224H532.919C527.989 224 523.739 220.94 522.209 216.18Z" fill="white"/>
<path d="M584.882 147.84V138.32H585.052C591.852 138.32 597.972 134.41 600.522 128.12L608.172 109.76H620.242V138.32H639.452V147.84H620.242V206.83C620.242 219.58 634.522 216.01 636.392 209.89L639.452 216.52C631.802 229.27 596.102 226.72 596.102 201.05V147.84H584.882ZM681.151 148.35C670.101 148.35 663.981 164.84 664.491 181.33C664.491 182.18 664.491 183.03 664.661 183.88C676.901 179.29 696.451 185.41 696.791 171.64C696.961 163.48 691.011 148.35 681.151 148.35ZM681.151 138.66C698.831 138.66 715.151 151.75 714.981 171.13C714.811 195.27 676.561 185.07 665.681 191.87C672.311 223.15 703.591 212.61 706.141 198.16L715.831 202.41C698.661 239.47 641.881 228.93 642.051 181.5C642.051 160.08 655.141 138.66 681.151 138.66ZM738.852 143.08L744.802 138.32H756.872V148.52C766.392 135.43 786.112 134.41 793.762 148.18C796.822 152.77 796.482 158.72 793.082 162.97C789.682 167.22 784.072 168.75 778.972 167.05C773.872 165.35 770.472 160.42 770.472 154.98C770.132 145.63 756.872 151.58 756.872 165.69V207.68C756.872 211.42 759.932 214.48 763.502 214.48H766.052V224H723.722V214.48H726.102C729.842 214.48 732.732 211.42 732.902 207.68V157.53H723.722V147.84H725.082C730.012 148.01 734.942 146.31 738.852 143.08ZM816.382 143.08L822.332 138.32H834.402V150.22C846.812 134.58 876.732 133.73 882.342 151.58C895.262 132.88 932.152 133.05 932.152 157.87V207.68C932.322 211.42 935.212 214.48 938.952 214.48H941.502V224H899.002V214.48H901.552C905.122 214.48 908.182 211.42 908.182 207.68V157.87C908.182 141.55 883.362 149.37 883.362 165.69V207.68C883.362 211.42 886.252 214.48 889.992 214.48H892.542V224H850.042V214.48H852.592C856.332 214.48 859.222 211.42 859.222 207.68V157.87C859.222 141.55 834.402 149.37 834.402 165.69V207.68C834.402 211.42 837.462 214.48 841.032 214.48H843.582V224H801.252V214.48H803.632C807.372 214.48 810.432 211.42 810.432 207.68V157.53H801.252V147.84H802.612C807.542 148.01 812.472 146.31 816.382 143.08ZM949.544 207.51C943.424 194.42 964.844 190.34 965.184 204.11C966.034 222.47 1013.97 214.14 983.544 193.4C975.894 188.3 966.204 183.03 959.234 177.25C948.354 168.07 946.484 158.21 950.734 150.73C960.934 133.39 1003.77 133.56 1012.78 154.64C1018.73 167.56 998.844 171.64 997.144 158.21C994.764 140.7 946.824 146.31 978.784 168.24C986.604 173.51 996.124 179.12 1002.92 184.9C1014.14 194.25 1016.35 203.77 1012.1 211.25C1002.58 228.59 959.404 229.1 949.544 207.51Z" fill="#CAA7FF"/>
<g clip-path="url(#clip0_37_44)">
<path opacity="0.4" d="M109.721 279.409C117.676 278.662 114.217 279.384 126.413 276.844C130.684 275.954 133.373 271.518 132.419 266.936C131.465 262.354 127.229 259.361 122.957 260.25C110.227 262.901 114.923 261.912 107.882 262.572C100.966 263.221 96.8414 262.604 93.5621 261.045C91.3495 259.994 89.3132 258.636 87.5095 257.024C84.9167 254.708 82.8106 251.313 80.6897 244.785C78.5069 238.068 76.6251 229.095 73.9316 216.161L68.8035 191.54C68.3313 189.273 67.2036 183.851 68.5898 179.381C69.4438 176.626 70.7664 174.197 72.3475 172.771C74.8952 170.473 78.0201 168.818 81.5551 168.082L89.853 166.677C92.8749 166.118 96.3638 165.285 99.5493 163.605C105.754 160.334 109.758 153.73 110.052 146.282C110.203 142.458 109.513 138.673 108.779 135.459L106.651 126.687C105.824 122.716 106.088 119.055 107.14 115.484C107.753 113.403 109.142 111.325 111.241 109.317C114.423 106.273 118.798 105.34 121.472 104.769C124.145 104.199 126.966 103.601 129.325 103.11C143.84 100.087 149.144 99.1062 153.442 99.7822C160.891 100.954 167.294 105.304 171.136 111.46C172.098 113.002 172.989 115.105 174.014 118.86C175.059 122.687 176.093 127.635 177.579 134.769L186.619 178.176C187.569 182.741 191.79 185.723 196.046 184.837C200.302 183.951 202.981 179.532 202.03 174.967L192.932 131.277C191.519 124.493 190.374 118.996 189.165 114.565C187.919 110.001 186.462 106.002 184.19 102.364C177.638 91.8655 167.037 84.9118 155.286 83.0631C147.954 81.9098 136.305 84.3393 124 86.9067C101.527 91.5836 88.1783 94.3616 78.099 100.775C61.913 111.074 50.8155 128.113 47.9175 147.637C46.9514 154.145 47.3179 160.842 48.4621 168.725C49.586 176.469 51.5531 185.914 54.0606 197.955L58.6282 219.887C61.1882 232.181 63.2613 242.137 65.7881 249.913C68.4121 257.988 71.8185 264.701 77.5993 269.865C80.5939 272.541 83.9336 274.758 87.5109 276.458C94.336 279.702 101.546 280.176 109.721 279.409Z" fill="white"/>
<path opacity="0.4" d="M156.669 207.348C155.175 207.29 153.832 208.23 153.302 209.703L150.793 216.679C147.387 226.15 146.004 229.764 143.492 232.324C140.98 234.883 137.529 236.194 128.495 239.398L121.84 241.759C120.435 242.257 119.494 243.645 119.482 245.237C119.47 246.829 120.389 248.288 121.786 248.895L128.401 251.768C137.38 255.668 140.809 257.244 143.28 259.995C145.752 262.747 147.078 266.466 150.337 276.194L152.738 283.36C153.245 284.873 154.573 285.916 156.067 285.974C157.56 286.031 158.904 285.092 159.434 283.619L161.943 276.642C165.349 267.172 166.732 263.557 169.243 260.997C171.756 258.438 175.207 257.128 184.241 253.923L190.896 251.563C192.301 251.064 193.242 249.676 193.254 248.085C193.266 246.493 192.347 245.033 190.95 244.426L184.335 241.554C175.356 237.654 171.927 236.078 169.455 233.326C166.984 230.574 165.658 226.855 162.399 217.127L159.998 209.961C159.491 208.448 158.163 207.405 156.669 207.348Z" fill="white"/>
<path d="M195.379 196.195C193.886 196.137 192.542 197.077 192.012 198.55L190.937 201.54C189.411 205.782 188.969 206.783 188.285 207.48C187.601 208.176 186.643 208.603 182.596 210.038L179.744 211.05C178.339 211.548 177.398 212.936 177.386 214.528C177.373 216.12 178.292 217.58 179.689 218.186L182.524 219.417C186.547 221.164 187.498 221.664 188.17 222.413C188.843 223.163 189.27 224.197 190.73 228.555L191.759 231.626C192.266 233.139 193.594 234.182 195.088 234.239C196.581 234.297 197.925 233.357 198.455 231.885L199.53 228.894C201.056 224.652 201.499 223.651 202.182 222.954C202.866 222.258 203.824 221.831 207.871 220.396L210.724 219.384C212.128 218.886 213.069 217.498 213.082 215.906C213.094 214.314 212.175 212.854 210.778 212.248L207.943 211.017C203.921 209.27 202.969 208.77 202.297 208.021C201.624 207.271 201.197 206.237 199.737 201.879L198.708 198.808C198.201 197.295 196.873 196.252 195.379 196.195Z" fill="white"/>
</g>
<defs>
<clipPath id="clip0_37_44">
<rect width="194.009" height="208.118" fill="white" transform="translate(15.9961 99.4341) rotate(-11.764)"/>
</clipPath>
</defs>
</svg>
