<svg width="1053" height="244" viewBox="0 0 1053 244" fill="none" xmlns="http://www.w3.org/2000/svg">
<path d="M275.184 88.4706C264.134 88.4706 258.014 104.961 258.524 121.451C258.524 122.301 258.524 123.151 258.694 124.001C270.934 119.411 290.484 125.531 290.824 111.761C290.994 103.601 285.044 88.4706 275.184 88.4706ZM275.184 78.7806C292.864 78.7806 309.184 91.8706 309.014 111.251C308.844 135.391 270.594 125.191 259.714 131.991C266.344 163.271 297.624 152.731 300.174 138.281L309.864 142.531C292.694 179.591 235.914 169.051 236.084 121.621C236.084 100.201 249.174 78.7806 275.184 78.7806ZM362.296 139.471V122.811C356.686 119.241 347.676 114.821 342.406 118.391C333.736 124.341 335.096 144.741 345.976 146.611C352.436 147.801 358.046 144.401 362.296 139.471ZM362.296 152.901C357.026 159.531 350.056 164.631 342.066 164.971C310.106 165.991 309.426 106.491 344.616 110.231C350.906 110.911 356.856 112.951 362.296 116.011V102.921C361.956 85.5806 339.856 85.4106 326.766 101.051L322.346 91.0206C337.986 70.9606 386.436 76.2306 386.436 97.9906V147.801C386.436 151.541 389.496 154.601 393.066 154.601H395.616V164.121H380.996C376.746 164.121 372.666 162.591 369.606 159.701L362.296 152.901ZM403.626 147.631C397.506 134.541 418.926 130.461 419.266 144.231C420.116 162.591 468.056 154.261 437.626 133.521C429.976 128.421 420.286 123.151 413.316 117.371C402.436 108.191 400.566 98.3306 404.816 90.8506C415.016 73.5106 457.856 73.6806 466.866 94.7606C472.816 107.681 452.926 111.761 451.226 98.3306C448.846 80.8206 400.906 86.4306 432.866 108.361C440.686 113.631 450.206 119.241 457.006 125.021C468.226 134.371 470.436 143.891 466.186 151.371C456.666 168.711 413.486 169.221 403.626 147.631ZM506.213 156.301L487.683 95.9506C486.323 91.1906 481.903 87.9606 477.143 87.9606H473.233V78.4406H516.753V87.9606H510.463L527.973 144.741L544.803 87.9606H538.513V78.4406H566.903V87.9606H563.163C558.233 87.9606 553.813 91.1906 552.453 95.9506L532.393 163.441L528.143 177.721C524.743 190.471 508.933 202.541 494.823 195.061C489.893 192.851 487.003 187.751 487.513 182.311C488.023 177.041 491.933 172.451 497.203 171.261C502.473 169.901 507.913 172.111 510.803 176.701C513.693 180.951 517.433 179.251 518.963 175.001L522.193 164.121H516.923C511.993 164.121 507.743 161.061 506.213 156.301Z" fill="white"/>
<path d="M568.885 87.9606V78.4406H569.055C575.855 78.4406 581.975 74.5306 584.525 68.2406L592.175 49.8806H604.245V78.4406H623.455V87.9606H604.245V146.951C604.245 159.701 618.525 156.131 620.395 150.011L623.455 156.641C615.805 169.391 580.105 166.841 580.105 141.171V87.9606H568.885ZM665.155 88.4706C654.105 88.4706 647.985 104.961 648.495 121.451C648.495 122.301 648.495 123.151 648.665 124.001C660.905 119.411 680.455 125.531 680.795 111.761C680.965 103.601 675.015 88.4706 665.155 88.4706ZM665.155 78.7806C682.835 78.7806 699.155 91.8706 698.985 111.251C698.815 135.391 660.565 125.191 649.685 131.991C656.315 163.271 687.595 152.731 690.145 138.281L699.835 142.531C682.665 179.591 625.885 169.051 626.055 121.621C626.055 100.201 639.145 78.7806 665.155 78.7806ZM722.856 83.2006L728.806 78.4406H740.876V88.6406C750.396 75.5506 770.116 74.5306 777.766 88.3006C780.826 92.8906 780.486 98.8406 777.086 103.091C773.686 107.341 768.076 108.871 762.976 107.171C757.876 105.471 754.476 100.541 754.476 95.1006C754.136 85.7506 740.876 91.7006 740.876 105.811V147.801C740.876 151.541 743.936 154.601 747.506 154.601H750.056V164.121H707.726V154.601H710.106C713.846 154.601 716.736 151.541 716.906 147.801V97.6506H707.726V87.9606H709.086C714.016 88.1306 718.946 86.4306 722.856 83.2006ZM800.386 83.2006L806.336 78.4406H818.406V90.3406C830.816 74.7006 860.736 73.8506 866.346 91.7006C879.266 73.0006 916.156 73.1706 916.156 97.9906V147.801C916.326 151.541 919.216 154.601 922.956 154.601H925.506V164.121H883.006V154.601H885.556C889.126 154.601 892.186 151.541 892.186 147.801V97.9906C892.186 81.6706 867.366 89.4906 867.366 105.811V147.801C867.366 151.541 870.256 154.601 873.996 154.601H876.546V164.121H834.046V154.601H836.596C840.336 154.601 843.226 151.541 843.226 147.801V97.9906C843.226 81.6706 818.406 89.4906 818.406 105.811V147.801C818.406 151.541 821.466 154.601 825.036 154.601H827.586V164.121H785.256V154.601H787.636C791.376 154.601 794.436 151.541 794.436 147.801V97.6506H785.256V87.9606H786.616C791.546 88.1306 796.476 86.4306 800.386 83.2006ZM933.547 147.631C927.427 134.541 948.847 130.461 949.187 144.231C950.037 162.591 997.977 154.261 967.547 133.521C959.897 128.421 950.207 123.151 943.237 117.371C932.357 108.191 930.487 98.3306 934.737 90.8506C944.937 73.5106 987.777 73.6806 996.787 94.7606C1002.74 107.681 982.847 111.761 981.147 98.3306C978.767 80.8206 930.827 86.4306 962.787 108.361C970.607 113.631 980.127 119.241 986.927 125.021C998.147 134.371 1000.36 143.891 996.107 151.371C986.587 168.711 943.407 169.221 933.547 147.631Z" fill="white"/>
<g clip-path="url(#clip0_37_44)">
<path opacity="0.4" d="M93.7252 219.53C101.68 218.783 98.2205 219.504 110.417 216.964C114.688 216.075 117.377 211.638 116.423 207.057C115.469 202.474 111.232 199.481 106.961 200.371C94.2305 203.022 98.9272 202.032 91.8855 202.693C84.9698 203.342 80.8453 202.724 77.566 201.165C75.3534 200.114 73.3171 198.757 71.5134 197.145C68.9206 194.828 66.8145 191.433 64.6936 184.906C62.5108 178.188 60.629 169.215 57.9355 156.281L52.8074 131.66C52.3352 129.394 51.2076 123.972 52.5937 119.501C53.4478 116.746 54.7703 114.317 56.3514 112.891C58.8991 110.593 62.0241 108.938 65.559 108.202L73.8569 106.797C76.8788 106.238 80.3677 105.405 83.5532 103.725C89.7581 100.454 93.7617 93.8503 94.0557 86.4019C94.2064 82.5782 93.5172 78.793 92.7827 75.5792L90.6545 66.8073C89.8277 62.8368 90.0924 59.1754 91.1438 55.6046C91.7565 53.5232 93.1462 51.4455 95.2449 49.4378C98.4265 46.3934 102.802 45.4601 105.475 44.8898C108.148 44.3197 110.97 43.7217 113.329 43.2304C127.844 40.2076 133.148 39.2266 137.445 39.9025C144.895 41.0746 151.297 45.4246 155.14 51.5808C156.102 53.1224 156.993 55.2258 158.018 58.9802C159.063 62.8076 160.097 67.7557 161.583 74.8891L170.623 118.297C171.573 122.862 175.794 125.844 180.05 124.957C184.306 124.071 186.985 119.652 186.034 115.087L176.936 71.3978C175.523 64.6134 174.378 59.116 173.169 54.6858C171.923 50.1212 170.466 46.1227 168.194 42.4843C161.642 31.9858 151.041 25.0322 139.29 23.1835C131.958 22.0302 120.309 24.4596 108.004 27.027C85.5306 31.7039 72.1822 34.4819 62.1029 40.8953C45.9169 51.1944 34.8194 68.2335 31.9214 87.7575C30.9553 94.2649 31.3218 100.962 32.466 108.845C33.5899 116.589 35.557 126.034 38.0645 138.075L42.6321 160.008C45.1921 172.301 47.2652 182.257 49.792 190.033C52.416 198.109 55.8224 204.821 61.6032 209.986C64.5978 212.662 67.9375 214.878 71.5148 216.578C78.3399 219.822 85.55 220.297 93.7252 219.53Z" fill="white"/>
<path opacity="0.4" d="M140.673 147.468C139.179 147.41 137.836 148.35 137.306 149.823L134.797 156.8C131.391 166.27 130.008 169.884 127.496 172.444C124.984 175.004 121.533 176.314 112.499 179.519L105.844 181.879C104.439 182.377 103.498 183.765 103.486 185.357C103.474 186.949 104.393 188.409 105.79 189.015L112.404 191.888C121.384 195.788 124.813 197.364 127.284 200.116C129.756 202.868 131.082 206.587 134.341 216.314L136.742 223.481C137.249 224.994 138.577 226.036 140.071 226.094C141.564 226.152 142.908 225.212 143.438 223.739L145.947 216.762C149.353 207.292 150.735 203.678 153.247 201.118C155.76 198.559 159.211 197.248 168.244 194.043L174.9 191.683C176.305 191.185 177.246 189.797 177.258 188.205C177.27 186.613 176.351 185.153 174.954 184.547L168.339 181.674C159.36 177.774 155.931 176.198 153.459 173.447C150.988 170.694 149.662 166.976 146.403 157.248L144.002 150.081C143.495 148.568 142.166 147.526 140.673 147.468Z" fill="white"/>
<path d="M179.383 136.315C177.89 136.257 176.546 137.197 176.016 138.67L174.941 141.66C173.415 145.903 172.972 146.903 172.289 147.6C171.605 148.297 170.647 148.723 166.6 150.159L163.748 151.17C162.343 151.669 161.402 153.056 161.389 154.648C161.377 156.24 162.296 157.7 163.693 158.306L166.528 159.538C170.551 161.285 171.502 161.785 172.174 162.534C172.847 163.283 173.274 164.317 174.734 168.675L175.763 171.746C176.27 173.259 177.598 174.302 179.092 174.36C180.585 174.417 181.929 173.478 182.459 172.005L183.534 169.015C185.06 164.772 185.502 163.772 186.186 163.075C186.87 162.378 187.828 161.952 191.875 160.516L194.727 159.504C196.132 159.006 197.073 157.618 197.085 156.026C197.098 154.434 196.179 152.975 194.782 152.368L191.947 151.137C187.924 149.39 186.973 148.89 186.301 148.141C185.628 147.392 185.201 146.358 183.741 142L182.712 138.928C182.205 137.415 180.877 136.373 179.383 136.315Z" fill="white"/>
</g>
<defs>
<clipPath id="clip0_37_44">
<rect width="194.009" height="208.118" fill="white" transform="translate(0 39.5544) rotate(-11.764)"/>
</clipPath>
</defs>
</svg>
