<svg width="1053" height="244" viewBox="0 0 1053 244" fill="none" xmlns="http://www.w3.org/2000/svg">
<path d="M270.104 82.3706C260.354 82.3706 254.954 96.9206 255.404 111.471C255.404 112.221 255.404 112.971 255.554 113.721C266.354 109.671 283.604 115.071 283.904 102.921C284.054 95.7206 278.804 82.3706 270.104 82.3706ZM270.104 73.8206C285.704 73.8206 300.104 85.3706 299.954 102.471C299.804 123.771 266.054 114.771 256.454 120.771C262.304 148.371 289.904 139.071 292.154 126.321L300.704 130.071C285.554 162.771 235.454 153.471 235.604 111.621C235.604 92.7206 247.154 73.8206 270.104 73.8206ZM346.967 127.371V112.671C342.017 109.521 334.067 105.621 329.417 108.771C321.767 114.021 322.967 132.021 332.567 133.671C338.267 134.721 343.217 131.721 346.967 127.371ZM346.967 139.221C342.317 145.071 336.167 149.571 329.117 149.871C300.917 150.771 300.317 98.2706 331.367 101.571C336.917 102.171 342.167 103.971 346.967 106.671V95.1206C346.667 79.8206 327.167 79.6706 315.617 93.4706L311.717 84.6206C325.517 66.9206 368.267 71.5706 368.267 90.7706V134.721C368.267 138.021 370.967 140.721 374.117 140.721H376.367V149.121H363.467C359.717 149.121 356.117 147.771 353.417 145.221L346.967 139.221ZM383.435 134.571C378.035 123.021 396.935 119.421 397.235 131.571C397.985 147.771 440.285 140.421 413.435 122.121C406.685 117.621 398.135 112.971 391.985 107.871C382.385 99.7706 380.735 91.0706 384.485 84.4706C393.485 69.1706 431.285 69.3206 439.235 87.9206C444.485 99.3206 426.935 102.921 425.435 91.0706C423.335 75.6206 381.035 80.5706 409.235 99.9206C416.135 104.571 424.535 109.521 430.535 114.621C440.435 122.871 442.385 131.271 438.635 137.871C430.235 153.171 392.135 153.621 383.435 134.571ZM473.953 142.221L457.603 88.9706C456.403 84.7706 452.503 81.9206 448.303 81.9206H444.853V73.5206H483.253V81.9206H477.703L493.153 132.021L508.003 81.9206H502.453V73.5206H527.503V81.9206H524.203C519.853 81.9206 515.953 84.7706 514.753 88.9706L497.053 148.521L493.303 161.121C490.303 172.371 476.353 183.021 463.903 176.421C459.553 174.471 457.003 169.971 457.453 165.171C457.903 160.521 461.353 156.471 466.003 155.421C470.653 154.221 475.453 156.171 478.003 160.221C480.553 163.971 483.853 162.471 485.203 158.721L488.053 149.121H483.403C479.053 149.121 475.303 146.421 473.953 142.221Z" fill="#A66CFF"/>
<path d="M529.252 81.9206V73.5206H529.402C535.402 73.5206 540.802 70.0706 543.052 64.5206L549.802 48.3206H560.452V73.5206H577.402V81.9206H560.452V133.971C560.452 145.221 573.052 142.071 574.702 136.671L577.402 142.521C570.652 153.771 539.152 151.521 539.152 128.871V81.9206H529.252ZM614.196 82.3706C604.446 82.3706 599.046 96.9206 599.496 111.471C599.496 112.221 599.496 112.971 599.646 113.721C610.446 109.671 627.696 115.071 627.996 102.921C628.146 95.7206 622.896 82.3706 614.196 82.3706ZM614.196 73.8206C629.796 73.8206 644.196 85.3706 644.046 102.471C643.896 123.771 610.146 114.771 600.546 120.771C606.396 148.371 633.996 139.071 636.246 126.321L644.796 130.071C629.646 162.771 579.546 153.471 579.696 111.621C579.696 92.7206 591.246 73.8206 614.196 73.8206ZM665.109 77.7206L670.359 73.5206H681.009V82.5206C689.409 70.9706 706.809 70.0706 713.559 82.2206C716.259 86.2706 715.959 91.5206 712.959 95.2706C709.959 99.0206 705.009 100.371 700.509 98.8706C696.009 97.3706 693.009 93.0206 693.009 88.2206C692.709 79.9706 681.009 85.2206 681.009 97.6706V134.721C681.009 138.021 683.709 140.721 686.859 140.721H689.109V149.121H651.759V140.721H653.859C657.159 140.721 659.709 138.021 659.859 134.721V90.4706H651.759V81.9206H652.959C657.309 82.0706 661.659 80.5706 665.109 77.7206ZM733.517 77.7206L738.767 73.5206H749.417V84.0206C760.367 70.2206 786.767 69.4706 791.717 85.2206C803.117 68.7206 835.667 68.8706 835.667 90.7706V134.721C835.817 138.021 838.367 140.721 841.667 140.721H843.917V149.121H806.417V140.721H808.667C811.817 140.721 814.517 138.021 814.517 134.721V90.7706C814.517 76.3706 792.617 83.2706 792.617 97.6706V134.721C792.617 138.021 795.167 140.721 798.467 140.721H800.717V149.121H763.217V140.721H765.467C768.767 140.721 771.317 138.021 771.317 134.721V90.7706C771.317 76.3706 749.417 83.2706 749.417 97.6706V134.721C749.417 138.021 752.117 140.721 755.267 140.721H757.517V149.121H720.167V140.721H722.267C725.567 140.721 728.267 138.021 728.267 134.721V90.4706H720.167V81.9206H721.367C725.717 82.0706 730.067 80.5706 733.517 77.7206ZM851.013 134.571C845.613 123.021 864.513 119.421 864.813 131.571C865.563 147.771 907.863 140.421 881.013 122.121C874.263 117.621 865.713 112.971 859.563 107.871C849.963 99.7706 848.313 91.0706 852.063 84.4706C861.063 69.1706 898.863 69.3206 906.813 87.9206C912.063 99.3206 894.513 102.921 893.013 91.0706C890.913 75.6206 848.613 80.5706 876.813 99.9206C883.713 104.571 892.113 109.521 898.113 114.621C908.013 122.871 909.963 131.271 906.213 137.871C897.813 153.171 859.713 153.621 851.013 134.571Z" fill="#E1CDFF"/>
<g clip-path="url(#clip0_37_44)">
<path opacity="0.4" d="M93.7252 219.53C101.68 218.783 98.2205 219.504 110.417 216.964C114.688 216.075 117.377 211.638 116.423 207.057C115.469 202.474 111.232 199.481 106.961 200.371C94.2305 203.022 98.9272 202.032 91.8855 202.693C84.9698 203.342 80.8453 202.724 77.566 201.165C75.3534 200.114 73.3171 198.757 71.5134 197.145C68.9206 194.828 66.8145 191.433 64.6936 184.906C62.5108 178.188 60.629 169.215 57.9355 156.281L52.8074 131.66C52.3352 129.394 51.2076 123.972 52.5937 119.501C53.4478 116.746 54.7703 114.317 56.3514 112.891C58.8991 110.593 62.0241 108.938 65.559 108.202L73.8569 106.797C76.8788 106.238 80.3677 105.405 83.5532 103.725C89.7581 100.454 93.7617 93.8503 94.0557 86.4019C94.2064 82.5782 93.5172 78.793 92.7827 75.5792L90.6545 66.8073C89.8277 62.8368 90.0924 59.1754 91.1438 55.6046C91.7565 53.5232 93.1462 51.4455 95.2449 49.4378C98.4265 46.3934 102.802 45.4601 105.475 44.8898C108.148 44.3197 110.97 43.7217 113.329 43.2304C127.844 40.2076 133.148 39.2266 137.445 39.9025C144.895 41.0746 151.297 45.4246 155.14 51.5808C156.102 53.1224 156.993 55.2258 158.018 58.9802C159.063 62.8076 160.097 67.7557 161.583 74.8891L170.623 118.297C171.573 122.862 175.794 125.844 180.05 124.957C184.306 124.071 186.985 119.652 186.034 115.087L176.936 71.3978C175.523 64.6134 174.378 59.116 173.169 54.6858C171.923 50.1212 170.466 46.1227 168.194 42.4843C161.642 31.9858 151.041 25.0322 139.29 23.1835C131.958 22.0302 120.309 24.4596 108.004 27.027C85.5306 31.7039 72.1822 34.4819 62.1029 40.8953C45.9169 51.1944 34.8194 68.2335 31.9214 87.7575C30.9553 94.2649 31.3218 100.962 32.466 108.845C33.5899 116.589 35.557 126.034 38.0645 138.075L42.6321 160.008C45.1921 172.301 47.2652 182.257 49.792 190.033C52.416 198.109 55.8224 204.821 61.6032 209.986C64.5978 212.662 67.9375 214.878 71.5148 216.578C78.3399 219.822 85.55 220.297 93.7252 219.53Z" fill="#A66CFF"/>
<g clip-path="url(#clip1_37_44)">
<path opacity="0.4" d="M147.284 105.317C145.168 105.235 143.266 106.566 142.515 108.653L138.961 118.535C134.136 131.949 132.178 137.069 128.62 140.695C125.062 144.32 120.173 146.176 107.377 150.715L97.9509 154.059C95.9607 154.764 94.628 156.73 94.6107 158.985C94.5934 161.24 95.8953 163.308 97.8735 164.167L107.243 168.236C119.962 173.76 124.819 175.992 128.32 179.89C131.82 183.788 133.699 189.056 138.315 202.834L141.716 212.985C142.434 215.128 144.316 216.605 146.431 216.687C148.547 216.769 150.45 215.438 151.2 213.351L154.754 203.469C159.58 190.055 161.537 184.935 165.095 181.309C168.654 177.684 173.542 175.828 186.338 171.289L195.765 167.945C197.755 167.239 199.088 165.273 199.105 163.019C199.122 160.764 197.82 158.696 195.842 157.837L186.472 153.768C173.754 148.244 168.896 146.012 165.395 142.114C161.895 138.216 160.017 132.948 155.4 119.169L151.999 109.019C151.281 106.876 149.4 105.399 147.284 105.317Z" fill="#A66CFF"/>
</g>
</g>
<defs>
<clipPath id="clip0_37_44">
<rect width="194.009" height="208.118" fill="white" transform="translate(0 39.5544) rotate(-11.764)"/>
</clipPath>
<clipPath id="clip1_37_44">
<rect width="114.312" height="121.747" fill="white" transform="matrix(0.999256 0.0385727 -0.0076575 0.999971 84.3203 103.927)"/>
</clipPath>
</defs>
</svg>
