<svg width="1073" height="244" viewBox="0 0 1073 244" fill="none" xmlns="http://www.w3.org/2000/svg">
<path d="M290.104 82.3704C280.354 82.3704 274.954 96.9204 275.404 111.47C275.404 112.22 275.404 112.97 275.554 113.72C286.354 109.67 303.604 115.07 303.904 102.92C304.054 95.7204 298.804 82.3704 290.104 82.3704ZM290.104 73.8204C305.704 73.8204 320.104 85.3704 319.954 102.47C319.804 123.77 286.054 114.77 276.454 120.77C282.304 148.37 309.904 139.07 312.154 126.32L320.704 130.07C305.554 162.77 255.454 153.47 255.604 111.62C255.604 92.7204 267.154 73.8204 290.104 73.8204ZM369.967 127.37V112.67C365.017 109.52 357.067 105.62 352.417 108.77C344.767 114.02 345.967 132.02 355.567 133.67C361.267 134.72 366.217 131.72 369.967 127.37ZM369.967 139.22C365.317 145.07 359.167 149.57 352.117 149.87C323.917 150.77 323.317 98.2704 354.367 101.57C359.917 102.17 365.167 103.97 369.967 106.67V95.1204C369.667 79.8204 350.167 79.6704 338.617 93.4704L334.717 84.6204C348.517 66.9204 391.267 71.5704 391.267 90.7704V134.72C391.267 138.02 393.967 140.72 397.117 140.72H399.367V149.12H386.467C382.717 149.12 379.117 147.77 376.417 145.22L369.967 139.22ZM409.435 134.57C404.035 123.02 422.935 119.42 423.235 131.57C423.985 147.77 466.285 140.42 439.435 122.12C432.685 117.62 424.135 112.97 417.985 107.87C408.385 99.7704 406.735 91.0704 410.485 84.4704C419.485 69.1704 457.285 69.3204 465.235 87.9204C470.485 99.3204 452.935 102.92 451.435 91.0704C449.335 75.6204 407.035 80.5704 435.235 99.9204C442.135 104.57 450.535 109.52 456.535 114.62C466.435 122.87 468.385 131.27 464.635 137.87C456.235 153.17 418.135 153.62 409.435 134.57ZM502.953 142.22L486.603 88.9704C485.403 84.7704 481.503 81.9204 477.303 81.9204H473.853V73.5204H512.253V81.9204H506.703L522.153 132.02L537.003 81.9204H531.453V73.5204H556.503V81.9204H553.203C548.853 81.9204 544.953 84.7704 543.753 88.9704L526.053 148.52L522.303 161.12C519.303 172.37 505.353 183.02 492.903 176.42C488.553 174.47 486.003 169.97 486.453 165.17C486.903 160.52 490.353 156.47 495.003 155.42C499.653 154.22 504.453 156.17 507.003 160.22C509.553 163.97 512.853 162.47 514.203 158.72L517.053 149.12H512.403C508.053 149.12 504.303 146.42 502.953 142.22Z" fill="#A66CFF"/>
<path d="M561.252 81.9204V73.5204H561.402C567.402 73.5204 572.802 70.0704 575.052 64.5204L581.802 48.3204H592.452V73.5204H609.402V81.9204H592.452V133.97C592.452 145.22 605.052 142.07 606.702 136.67L609.402 142.52C602.652 153.77 571.152 151.52 571.152 128.87V81.9204H561.252ZM649.196 82.3704C639.446 82.3704 634.046 96.9204 634.496 111.47C634.496 112.22 634.496 112.97 634.646 113.72C645.446 109.67 662.696 115.07 662.996 102.92C663.146 95.7204 657.896 82.3704 649.196 82.3704ZM649.196 73.8204C664.796 73.8204 679.196 85.3704 679.046 102.47C678.896 123.77 645.146 114.77 635.546 120.77C641.396 148.37 668.996 139.07 671.246 126.32L679.796 130.07C664.646 162.77 614.546 153.47 614.696 111.62C614.696 92.7204 626.246 73.8204 649.196 73.8204ZM703.109 77.7204L708.359 73.5204H719.009V82.5204C727.409 70.9704 744.809 70.0704 751.559 82.2204C754.259 86.2704 753.959 91.5204 750.959 95.2704C747.959 99.0204 743.009 100.37 738.509 98.8704C734.009 97.3704 731.009 93.0204 731.009 88.2204C730.709 79.9704 719.009 85.2204 719.009 97.6704V134.72C719.009 138.02 721.709 140.72 724.859 140.72H727.109V149.12H689.759V140.72H691.859C695.159 140.72 697.709 138.02 697.859 134.72V90.4704H689.759V81.9204H690.959C695.309 82.0704 699.659 80.5704 703.109 77.7204ZM774.517 77.7204L779.767 73.5204H790.417V84.0204C801.367 70.2204 827.767 69.4704 832.717 85.2204C844.117 68.7204 876.667 68.8704 876.667 90.7704V134.72C876.817 138.02 879.367 140.72 882.667 140.72H884.917V149.12H847.417V140.72H849.667C852.817 140.72 855.517 138.02 855.517 134.72V90.7704C855.517 76.3704 833.617 83.2704 833.617 97.6704V134.72C833.617 138.02 836.167 140.72 839.467 140.72H841.717V149.12H804.217V140.72H806.467C809.767 140.72 812.317 138.02 812.317 134.72V90.7704C812.317 76.3704 790.417 83.2704 790.417 97.6704V134.72C790.417 138.02 793.117 140.72 796.267 140.72H798.517V149.12H761.167V140.72H763.267C766.567 140.72 769.267 138.02 769.267 134.72V90.4704H761.167V81.9204H762.367C766.717 82.0704 771.067 80.5704 774.517 77.7204ZM895.013 134.57C889.613 123.02 908.513 119.42 908.813 131.57C909.563 147.77 951.863 140.42 925.013 122.12C918.263 117.62 909.713 112.97 903.563 107.87C893.963 99.7704 892.313 91.0704 896.063 84.4704C905.063 69.1704 942.863 69.3204 950.813 87.9204C956.063 99.3204 938.513 102.92 937.013 91.0704C934.913 75.6204 892.613 80.5704 920.813 99.9204C927.713 104.57 936.113 109.52 942.113 114.62C952.013 122.87 953.963 131.27 950.213 137.87C941.813 153.17 903.713 153.62 895.013 134.57Z" fill="#E1CDFF"/>
<g clip-path="url(#clip0_37_44)">
<path opacity="0.4" d="M93.7252 219.53C101.68 218.783 98.2205 219.504 110.417 216.964C114.688 216.075 117.377 211.638 116.423 207.057C115.469 202.474 111.232 199.481 106.961 200.371C94.2305 203.022 98.9272 202.032 91.8855 202.693C84.9698 203.342 80.8453 202.724 77.566 201.165C75.3534 200.114 73.3171 198.757 71.5134 197.145C68.9206 194.828 66.8145 191.433 64.6936 184.906C62.5108 178.188 60.629 169.215 57.9355 156.281L52.8074 131.66C52.3352 129.394 51.2076 123.972 52.5937 119.501C53.4478 116.746 54.7703 114.317 56.3514 112.891C58.8991 110.593 62.0241 108.938 65.559 108.202L73.8569 106.797C76.8788 106.238 80.3677 105.405 83.5532 103.725C89.7581 100.454 93.7617 93.8503 94.0557 86.4019C94.2064 82.5782 93.5172 78.793 92.7827 75.5792L90.6545 66.8073C89.8277 62.8368 90.0924 59.1754 91.1438 55.6046C91.7565 53.5232 93.1462 51.4455 95.2449 49.4378C98.4265 46.3934 102.802 45.4601 105.475 44.8898C108.148 44.3197 110.97 43.7217 113.329 43.2304C127.844 40.2076 133.148 39.2266 137.445 39.9025C144.895 41.0746 151.297 45.4246 155.14 51.5808C156.102 53.1224 156.993 55.2258 158.018 58.9802C159.063 62.8076 160.097 67.7557 161.583 74.8891L170.623 118.297C171.573 122.862 175.794 125.844 180.05 124.957C184.306 124.071 186.985 119.652 186.034 115.087L176.936 71.3978C175.523 64.6134 174.378 59.116 173.169 54.6858C171.923 50.1212 170.466 46.1227 168.194 42.4843C161.642 31.9858 151.041 25.0322 139.29 23.1835C131.958 22.0302 120.309 24.4596 108.004 27.027C85.5306 31.7039 72.1822 34.4819 62.1029 40.8953C45.9169 51.1944 34.8194 68.2335 31.9214 87.7575C30.9553 94.2649 31.3218 100.962 32.466 108.845C33.5899 116.589 35.557 126.034 38.0645 138.075L42.6321 160.008C45.1921 172.301 47.2652 182.257 49.792 190.033C52.416 198.109 55.8224 204.821 61.6032 209.986C64.5978 212.662 67.9375 214.878 71.5148 216.578C78.3399 219.822 85.55 220.297 93.7252 219.53Z" fill="#A66CFF"/>
<g clip-path="url(#clip1_37_44)">
<path opacity="0.4" d="M147.284 105.317C145.168 105.235 143.266 106.566 142.515 108.653L138.961 118.535C134.136 131.949 132.178 137.069 128.62 140.695C125.062 144.32 120.173 146.176 107.377 150.715L97.9509 154.059C95.9607 154.764 94.628 156.73 94.6107 158.985C94.5934 161.24 95.8953 163.308 97.8735 164.167L107.243 168.236C119.962 173.76 124.819 175.992 128.32 179.89C131.82 183.788 133.699 189.056 138.315 202.834L141.716 212.985C142.434 215.128 144.316 216.605 146.431 216.687C148.547 216.769 150.45 215.438 151.2 213.351L154.754 203.469C159.58 190.055 161.537 184.935 165.095 181.309C168.654 177.684 173.542 175.828 186.338 171.289L195.765 167.945C197.755 167.239 199.088 165.273 199.105 163.019C199.122 160.764 197.82 158.696 195.842 157.837L186.472 153.768C173.754 148.244 168.896 146.012 165.395 142.114C161.895 138.216 160.017 132.948 155.4 119.169L151.999 109.019C151.281 106.876 149.4 105.399 147.284 105.317Z" fill="#A66CFF"/>
</g>
</g>
<defs>
<clipPath id="clip0_37_44">
<rect width="194.009" height="208.118" fill="white" transform="translate(0 39.5544) rotate(-11.764)"/>
</clipPath>
<clipPath id="clip1_37_44">
<rect width="114.312" height="121.747" fill="white" transform="matrix(0.999256 0.0385727 -0.0076575 0.999971 84.3203 103.927)"/>
</clipPath>
</defs>
</svg>
