<svg width="1073" height="244" viewBox="0 0 1073 244" fill="none" xmlns="http://www.w3.org/2000/svg">
<g clip-path="url(#clip0_37_44)">
<path opacity="0.4" d="M93.7252 219.53C101.68 218.783 98.2205 219.504 110.417 216.964C114.688 216.075 117.377 211.638 116.423 207.057C115.469 202.474 111.232 199.481 106.961 200.371C94.2305 203.022 98.9272 202.032 91.8855 202.693C84.9698 203.342 80.8453 202.724 77.566 201.165C75.3534 200.114 73.3171 198.757 71.5134 197.145C68.9206 194.828 66.8145 191.433 64.6936 184.906C62.5108 178.188 60.629 169.215 57.9355 156.281L52.8074 131.66C52.3352 129.394 51.2076 123.972 52.5937 119.501C53.4478 116.746 54.7703 114.317 56.3514 112.891C58.8991 110.593 62.0241 108.938 65.559 108.202L73.8569 106.797C76.8788 106.238 80.3677 105.405 83.5532 103.725C89.7581 100.454 93.7617 93.8503 94.0557 86.4019C94.2064 82.5782 93.5172 78.793 92.7827 75.5792L90.6545 66.8073C89.8277 62.8368 90.0924 59.1754 91.1438 55.6046C91.7565 53.5232 93.1462 51.4455 95.2449 49.4378C98.4265 46.3934 102.802 45.4601 105.475 44.8898C108.148 44.3197 110.97 43.7217 113.329 43.2304C127.844 40.2076 133.148 39.2266 137.445 39.9025C144.895 41.0746 151.297 45.4246 155.14 51.5808C156.102 53.1224 156.993 55.2258 158.018 58.9802C159.063 62.8076 160.097 67.7557 161.583 74.8891L170.623 118.297C171.573 122.862 175.794 125.844 180.05 124.957C184.306 124.071 186.985 119.652 186.034 115.087L176.936 71.3978C175.523 64.6134 174.378 59.116 173.169 54.6858C171.923 50.1212 170.466 46.1227 168.194 42.4843C161.642 31.9858 151.041 25.0322 139.29 23.1835C131.958 22.0302 120.309 24.4596 108.004 27.027C85.5306 31.7039 72.1822 34.4819 62.1029 40.8953C45.9169 51.1944 34.8194 68.2335 31.9214 87.7575C30.9553 94.2649 31.3218 100.962 32.466 108.845C33.5899 116.589 35.557 126.034 38.0645 138.075L42.6321 160.008C45.1921 172.301 47.2652 182.257 49.792 190.033C52.416 198.109 55.8224 204.821 61.6032 209.986C64.5978 212.662 67.9375 214.878 71.5148 216.578C78.3399 219.822 85.55 220.297 93.7252 219.53Z" fill="#A66CFF"/>
<g clip-path="url(#clip1_37_44)">
<path opacity="0.4" d="M147.284 105.317C145.168 105.235 143.266 106.566 142.515 108.653L138.961 118.535C134.136 131.949 132.178 137.069 128.62 140.695C125.062 144.32 120.173 146.176 107.377 150.715L97.9509 154.059C95.9607 154.764 94.628 156.73 94.6107 158.985C94.5934 161.24 95.8953 163.308 97.8735 164.167L107.243 168.236C119.962 173.76 124.819 175.992 128.32 179.89C131.82 183.788 133.699 189.056 138.315 202.834L141.716 212.985C142.434 215.128 144.316 216.605 146.431 216.687C148.547 216.769 150.45 215.438 151.2 213.351L154.754 203.469C159.58 190.055 161.537 184.935 165.095 181.309C168.654 177.684 173.542 175.828 186.338 171.289L195.765 167.945C197.755 167.239 199.088 165.273 199.105 163.019C199.122 160.764 197.82 158.696 195.842 157.837L186.472 153.768C173.754 148.244 168.896 146.012 165.395 142.114C161.895 138.216 160.017 132.948 155.4 119.169L151.999 109.019C151.281 106.876 149.4 105.399 147.284 105.317Z" fill="#A66CFF"/>
</g>
</g>
<defs>
<clipPath id="clip0_37_44">
<rect width="194.009" height="208.118" fill="white" transform="translate(0 39.5544) rotate(-11.764)"/>
</clipPath>
<clipPath id="clip1_37_44">
<rect width="114.312" height="121.747" fill="white" transform="matrix(0.999256 0.0385727 -0.0076575 0.999971 84.3203 103.927)"/>
</clipPath>
</defs>
</svg>
