<svg width="801" height="244" viewBox="0 0 801 244" fill="none" xmlns="http://www.w3.org/2000/svg">
<g clip-path="url(#clip0_37_44)">
<path opacity="0.4" d="M93.7252 219.53C101.68 218.783 98.2205 219.504 110.417 216.964C114.688 216.075 117.377 211.638 116.423 207.057C115.469 202.474 111.232 199.481 106.961 200.371C94.2305 203.022 98.9272 202.032 91.8855 202.693C84.9698 203.342 80.8453 202.724 77.566 201.165C75.3534 200.114 73.3171 198.757 71.5134 197.145C68.9206 194.828 66.8145 191.433 64.6936 184.906C62.5108 178.188 60.629 169.215 57.9355 156.281L52.8074 131.66C52.3352 129.394 51.2076 123.972 52.5937 119.501C53.4478 116.746 54.7703 114.317 56.3514 112.891C58.8991 110.593 62.0241 108.938 65.559 108.202L73.8569 106.797C76.8788 106.238 80.3677 105.405 83.5532 103.725C89.7581 100.454 93.7617 93.8503 94.0557 86.4019C94.2064 82.5782 93.5172 78.793 92.7827 75.5792L90.6545 66.8073C89.8277 62.8368 90.0924 59.1754 91.1438 55.6046C91.7565 53.5232 93.1462 51.4455 95.2449 49.4378C98.4265 46.3934 102.802 45.4601 105.475 44.8898C108.148 44.3197 110.97 43.7217 113.329 43.2304C127.844 40.2076 133.148 39.2266 137.445 39.9025C144.895 41.0746 151.297 45.4246 155.14 51.5808C156.102 53.1224 156.993 55.2258 158.018 58.9802C159.063 62.8076 160.097 67.7557 161.583 74.8891L170.623 118.297C171.573 122.862 175.794 125.844 180.05 124.957C184.306 124.071 186.985 119.652 186.034 115.087L176.936 71.3978C175.523 64.6134 174.378 59.116 173.169 54.6858C171.923 50.1212 170.466 46.1227 168.194 42.4843C161.642 31.9858 151.041 25.0322 139.29 23.1835C131.958 22.0302 120.309 24.4596 108.004 27.027C85.5306 31.7039 72.1822 34.4819 62.1029 40.8953C45.9169 51.1944 34.8194 68.2335 31.9214 87.7575C30.9553 94.2649 31.3218 100.962 32.466 108.845C33.5899 116.589 35.557 126.034 38.0645 138.075L42.6321 160.008C45.1921 172.301 47.2652 182.257 49.792 190.033C52.416 198.109 55.8224 204.821 61.6032 209.986C64.5978 212.662 67.9375 214.878 71.5148 216.578C78.3399 219.822 85.55 220.297 93.7252 219.53Z" fill="#6500FF"/>
<g clip-path="url(#clip1_37_44)">
<path opacity="0.4" d="M144.284 114.317C142.168 114.235 140.266 115.566 139.515 117.653L135.961 127.535C131.136 140.949 129.178 146.069 125.62 149.695C122.062 153.32 117.173 155.176 104.377 159.715L94.9509 163.059C92.9607 163.764 91.628 165.73 91.6107 167.985C91.5934 170.24 92.8953 172.308 94.8735 173.167L104.243 177.236C116.962 182.76 121.819 184.992 125.32 188.89C128.82 192.788 130.699 198.056 135.315 211.834L138.716 221.985C139.434 224.128 141.316 225.605 143.431 225.687C145.547 225.769 147.45 224.438 148.2 222.351L151.754 212.469C156.58 199.055 158.537 193.935 162.095 190.309C165.654 186.684 170.542 184.828 183.338 180.289L192.765 176.945C194.755 176.239 196.088 174.273 196.105 172.019C196.122 169.764 194.82 167.696 192.842 166.837L183.472 162.768C170.754 157.244 165.896 155.012 162.395 151.114C158.895 147.216 157.017 141.948 152.4 128.169L148.999 118.019C148.281 115.876 146.4 114.399 144.284 114.317Z" fill="#BB93F9"/>
</g>
</g>
<path d="M302.26 125.808H255.412V128.112C255.412 135.408 261.172 144.24 272.308 144.24C280.5 144.24 288.564 140.656 288.564 133.616H301.62C301.62 145.264 289.46 156.144 274.1 156.144H270.388C252.596 156.144 242.228 141.296 242.228 128.112V116.336C242.228 103.152 253.364 88.0484 271.156 88.0484H273.332C281.012 88.0484 288.308 91.1204 293.556 96.1124C302.388 104.56 302.26 112.624 302.26 124.016V125.808ZM255.54 114.8H289.46C289.46 105.84 281.78 100.08 273.204 100.08C262.836 100.08 256.308 107.888 255.54 114.8ZM349.125 126.192H329.029C321.605 126.192 317.637 130.544 317.509 135.024C317.381 139.888 321.605 144.88 331.077 144.88C339.397 144.88 349.125 138.608 349.125 127.6V126.192ZM334.533 88.0484C352.325 88.0484 361.925 99.6964 361.925 111.856V155.12H350.405L349.125 148.208V148.08C344.261 152.816 337.349 156.4 328.005 156.4C316.101 156.4 304.453 149.616 304.453 136.432C304.453 126.32 312.901 115.952 329.669 115.952H349.125V111.984C349.125 103.92 341.829 100.08 334.533 100.08C327.493 100.08 320.453 103.664 319.813 110.96H307.013C307.525 99.0564 317.125 88.0484 334.533 88.0484ZM418.87 107.888H405.814C405.814 101.872 399.414 100.08 392.758 100.08C386.358 100.08 379.702 103.024 379.702 107.632C379.702 120.944 420.278 110.832 420.278 135.92C420.278 149.104 406.454 156.4 392.63 156.4C378.934 156.4 365.238 149.104 365.238 134H378.294C378.294 141.168 385.59 144.24 392.758 144.24C399.926 144.24 407.094 141.296 407.094 135.92C407.094 123.376 366.518 132.464 366.518 107.888C366.518 95.4724 379.19 88.1764 392.246 88.1764C405.43 88.1764 418.87 92.2724 418.87 107.888ZM423.618 89.3284H436.802V124.912C436.802 132.208 442.434 141.168 453.57 141.168C463.554 141.168 470.466 132.208 470.466 124.912V89.3284H483.65V157.808C483.65 169.968 474.434 181.616 456.642 181.616C439.234 181.616 429.634 170.608 429.122 158.704H442.05C442.562 166 449.602 169.584 456.642 169.584C463.938 169.584 470.466 165.744 470.466 157.68V144.88C465.73 150 459.202 153.2 451.65 153.2C433.858 153.2 423.618 138.096 423.618 124.912V89.3284ZM529.208 143.472L527.672 156.016C526.264 156.4 520.888 156.4 519.352 156.4C504.632 156.4 498.744 148.848 498.744 133.232V100.464H485.688V92.5284C494.264 92.5284 503.352 88.6884 503.352 73.5844H511.928V89.3284H528.184V100.464H511.928V132.976C511.928 141.296 515.128 143.472 522.04 143.472H529.208ZM590.035 125.808H543.187V128.112C543.187 135.408 548.947 144.24 560.083 144.24C568.275 144.24 576.339 140.656 576.339 133.616H589.395C589.395 145.264 577.235 156.144 561.875 156.144H558.163C540.371 156.144 530.003 141.296 530.003 128.112V116.336C530.003 103.152 541.139 88.0484 558.931 88.0484H561.107C568.787 88.0484 576.083 91.1204 581.331 96.1124C590.163 104.56 590.035 112.624 590.035 124.016V125.808ZM543.315 114.8H577.235C577.235 105.84 569.555 100.08 560.979 100.08C550.611 100.08 544.083 107.888 543.315 114.8ZM639.716 95.4724L630.244 105.328C627.428 101.744 623.588 100.08 620.132 100.08C613.86 100.08 607.972 105.2 607.972 113.904V155.12H594.788V89.3284H606.692L607.972 96.4964V96.6244C612.708 91.7604 619.492 88.1764 626.404 88.0484C631.78 88.0484 636.9 90.3524 639.716 95.4724ZM695.961 155.12H682.777V116.336C682.777 105.584 675.353 100.08 668.057 100.08C660.889 100.08 653.977 105.328 653.977 115.568V155.12H640.793V89.3284H651.801L653.977 97.0084C658.841 91.1204 666.009 88.0484 672.921 88.0484C680.985 88.0484 688.921 92.1444 693.017 101.232C697.753 92.6564 706.457 88.0484 714.905 88.0484C726.553 88.0484 737.817 96.8804 737.817 116.336V155.12H724.633V116.336C724.633 105.456 717.337 100.08 710.169 100.08C703.129 100.08 695.961 105.2 695.961 115.568V155.12Z" fill="#BB93F9"/>
<path d="M794.775 107.888H781.719C781.719 101.872 775.319 100.08 768.663 100.08C762.263 100.08 755.607 103.024 755.607 107.632C755.607 120.944 796.183 110.832 796.183 135.92C796.183 149.104 782.359 156.4 768.535 156.4C754.839 156.4 741.143 149.104 741.143 134H754.199C754.199 141.168 761.495 144.24 768.663 144.24C775.831 144.24 782.999 141.296 782.999 135.92C782.999 123.376 742.423 132.464 742.423 107.888C742.423 95.4724 755.095 88.1764 768.151 88.1764C781.335 88.1764 794.775 92.2724 794.775 107.888Z" fill="#BB93F9"/>
<defs>
<clipPath id="clip0_37_44">
<rect width="194.009" height="208.118" fill="white" transform="translate(0 39.5544) rotate(-11.764)"/>
</clipPath>
<clipPath id="clip1_37_44">
<rect width="114.312" height="121.747" fill="white" transform="matrix(0.999256 0.0385727 -0.0076575 0.999971 84.3203 112.927)"/>
</clipPath>
</defs>
</svg>
