<svg width="782" height="244" viewBox="0 0 782 244" fill="none" xmlns="http://www.w3.org/2000/svg">
<g clip-path="url(#clip0_37_44)">
<path opacity="0.4" d="M93.7252 219.53C101.68 218.783 98.2205 219.504 110.417 216.964C114.688 216.075 117.377 211.638 116.423 207.057C115.469 202.474 111.232 199.481 106.961 200.371C94.2305 203.022 98.9272 202.032 91.8855 202.693C84.9698 203.342 80.8453 202.724 77.566 201.165C75.3534 200.114 73.3171 198.757 71.5134 197.145C68.9206 194.828 66.8145 191.433 64.6936 184.906C62.5108 178.188 60.629 169.215 57.9355 156.281L52.8074 131.66C52.3352 129.394 51.2076 123.972 52.5937 119.501C53.4478 116.746 54.7703 114.317 56.3514 112.891C58.8991 110.593 62.0241 108.938 65.559 108.202L73.8569 106.797C76.8788 106.238 80.3677 105.405 83.5532 103.725C89.7581 100.454 93.7617 93.8503 94.0557 86.4019C94.2064 82.5782 93.5172 78.793 92.7827 75.5792L90.6545 66.8073C89.8277 62.8368 90.0924 59.1754 91.1438 55.6046C91.7565 53.5232 93.1462 51.4455 95.2449 49.4378C98.4265 46.3934 102.802 45.4601 105.475 44.8898C108.148 44.3197 110.97 43.7217 113.329 43.2304C127.844 40.2076 133.148 39.2266 137.445 39.9025C144.895 41.0746 151.297 45.4246 155.14 51.5808C156.102 53.1224 156.993 55.2258 158.018 58.9802C159.063 62.8076 160.097 67.7557 161.583 74.8891L170.623 118.297C171.573 122.862 175.794 125.844 180.05 124.957C184.306 124.071 186.985 119.652 186.034 115.087L176.936 71.3978C175.523 64.6134 174.378 59.116 173.169 54.6858C171.923 50.1212 170.466 46.1227 168.194 42.4843C161.642 31.9858 151.041 25.0322 139.29 23.1835C131.958 22.0302 120.309 24.4596 108.004 27.027C85.5306 31.7039 72.1822 34.4819 62.1029 40.8953C45.9169 51.1944 34.8194 68.2335 31.9214 87.7575C30.9553 94.2649 31.3218 100.962 32.466 108.845C33.5899 116.589 35.557 126.034 38.0645 138.075L42.6321 160.008C45.1921 172.301 47.2652 182.257 49.792 190.033C52.416 198.109 55.8224 204.821 61.6032 209.986C64.5978 212.662 67.9375 214.878 71.5148 216.578C78.3399 219.822 85.55 220.297 93.7252 219.53Z" fill="#6500FF"/>
<g clip-path="url(#clip1_37_44)">
<path opacity="0.4" d="M144.284 114.317C142.168 114.235 140.266 115.566 139.515 117.653L135.961 127.535C131.136 140.949 129.178 146.069 125.62 149.695C122.062 153.32 117.173 155.176 104.377 159.715L94.9509 163.059C92.9607 163.764 91.628 165.73 91.6107 167.985C91.5934 170.24 92.8953 172.308 94.8735 173.167L104.243 177.236C116.962 182.76 121.819 184.992 125.32 188.89C128.82 192.788 130.699 198.056 135.315 211.834L138.716 221.985C139.434 224.128 141.316 225.605 143.431 225.687C145.547 225.769 147.45 224.438 148.2 222.351L151.754 212.469C156.58 199.055 158.537 193.935 162.095 190.309C165.654 186.684 170.542 184.828 183.338 180.289L192.765 176.945C194.755 176.239 196.088 174.273 196.105 172.019C196.122 169.764 194.82 167.696 192.842 166.837L183.472 162.768C170.754 157.244 165.896 155.012 162.395 151.114C158.895 147.216 157.017 141.948 152.4 128.169L148.999 118.019C148.281 115.876 146.4 114.399 144.284 114.317Z" fill="#BB93F9"/>
</g>
</g>
<path d="M268.356 168.888C249.924 168.888 237.252 155.576 237.252 135.224C237.252 116.024 249.412 102.456 267.204 102.456C284.612 102.456 296.516 113.72 297.156 133.048C297.156 133.816 297.028 134.84 297.028 135.736H244.036V136.888C244.292 151.992 253.38 163 267.844 163C278.468 163 287.044 156.728 289.604 146.616H296.26C293.444 159.672 282.564 168.888 268.356 168.888ZM244.548 130.232H290.116C289.092 116.024 280.004 108.216 267.332 108.216C255.428 108.216 245.572 117.048 244.548 130.232ZM362.027 162.104H364.459V168.12H360.619C352.939 168.12 349.739 164.792 349.995 157.112V154.808C346.027 162.872 338.219 168.888 325.035 168.888C311.211 168.888 302.123 161.848 302.123 150.328C302.123 138.168 311.083 131 327.723 131H349.739V125.368C349.739 114.616 342.827 108.216 330.667 108.216C319.659 108.216 312.747 113.464 311.083 121.4H304.555C306.219 109.624 316.075 102.456 330.923 102.456C347.179 102.456 356.267 110.776 356.267 125.624V155.832C356.267 160.824 358.187 162.104 362.027 162.104ZM349.739 141.88V136.632H327.211C315.179 136.632 308.779 141.368 308.779 149.944C308.779 158.008 315.179 163.256 325.547 163.256C340.907 163.256 349.739 154.296 349.739 141.88ZM365.125 148.152H371.781C372.293 157.496 380.357 163.256 392.773 163.256C403.397 163.256 411.461 158.392 411.461 150.712C411.461 141.112 402.629 139.704 391.749 138.168C378.437 136.376 366.405 133.944 366.405 120.888C366.405 109.752 376.773 102.328 391.237 102.456C405.317 102.456 415.685 108.856 416.837 121.528H410.181C409.029 113.08 401.605 108.088 391.237 108.088C380.229 108.088 372.933 112.952 372.933 120.376C372.933 129.464 381.893 130.616 392.005 132.024C405.957 133.944 417.989 136.632 417.989 150.328C417.989 161.848 406.725 168.888 392.773 168.888C376.517 168.888 365.637 161.592 365.125 148.152ZM443.655 168.12L417.671 103.224H424.711L447.239 159.672L469.383 103.224H476.423L445.319 180.152C441.223 190.392 439.175 193.72 430.471 193.72H420.487V187.704H428.679C435.335 187.704 436.487 185.784 439.431 178.616L443.655 168.12ZM484.431 151.096V112.44H472.655V102.84H484.431V84.5364H494.927V102.84H511.823V112.44H494.927V150.968C494.927 156.472 496.847 158.52 502.479 158.52H512.847V168.12H501.455C488.911 168.12 484.431 162.616 484.431 151.096ZM545.277 168.888C525.693 168.888 512.893 155.448 512.893 135.48C512.893 115.64 525.437 102.072 543.869 102.072C562.301 102.072 574.333 113.72 574.845 133.048C574.845 134.456 574.717 135.992 574.589 137.528H523.901V138.424C524.285 150.84 532.093 159.544 544.509 159.544C553.725 159.544 560.893 154.68 563.069 146.232H573.693C571.133 159.288 560.381 168.888 545.277 168.888ZM524.541 128.824H563.581C562.557 117.56 554.877 111.288 543.997 111.288C534.397 111.288 525.565 118.2 524.541 128.824ZM611.91 102.84H614.854V113.08H609.606C595.91 113.08 592.198 124.472 592.198 134.84V168.12H581.702V102.84H590.79L592.198 112.696C595.27 107.704 600.262 102.84 611.91 102.84ZM691.664 102.072C705.232 102.072 716.368 109.88 716.368 130.488V168.12H705.872V131.128C705.872 118.328 700.24 111.672 690.384 111.672C679.504 111.672 672.848 119.864 672.848 133.176V168.12H662.352V131.128C662.352 118.328 656.592 111.672 646.608 111.672C635.856 111.672 629.328 120.632 629.328 133.688V168.12H618.832V102.84H627.92L629.328 111.8C632.784 107.064 638.288 102.072 648.4 102.072C657.488 102.072 665.296 106.168 669.008 114.488C672.976 107.448 680.016 102.072 691.664 102.072ZM722.024 146.616H732.776C733.16 154.296 739.944 159.928 750.824 159.928C760.04 159.928 766.568 155.96 766.568 149.944C766.568 141.752 759.4 141.112 749.672 139.96C735.08 138.168 723.432 135.224 723.432 121.656C723.432 109.752 734.312 101.944 749.032 102.072C763.88 102.2 774.632 109.112 775.656 122.68H764.904C764.136 116.024 757.992 111.032 749.032 111.032C739.944 111.032 733.8 114.872 733.8 120.888C733.8 128.056 740.712 128.952 750.184 130.104C765.032 131.896 776.936 134.712 776.936 149.176C776.936 161.336 765.288 168.888 750.824 168.888C733.928 168.888 722.28 160.952 722.024 146.616Z" fill="#BB93F9"/>
<defs>
<clipPath id="clip0_37_44">
<rect width="194.009" height="208.118" fill="white" transform="translate(0 39.5544) rotate(-11.764)"/>
</clipPath>
<clipPath id="clip1_37_44">
<rect width="114.312" height="121.747" fill="white" transform="matrix(0.999256 0.0385727 -0.0076575 0.999971 84.3203 112.927)"/>
</clipPath>
</defs>
</svg>
