<svg width="825" height="244" viewBox="0 0 825 244" fill="none" xmlns="http://www.w3.org/2000/svg">
<g clip-path="url(#clip0_37_44)">
<path opacity="0.4" d="M93.7252 219.53C101.68 218.783 98.2205 219.504 110.417 216.964C114.688 216.075 117.377 211.638 116.423 207.057C115.469 202.474 111.232 199.481 106.961 200.371C94.2305 203.022 98.9272 202.032 91.8855 202.693C84.9698 203.342 80.8453 202.724 77.566 201.165C75.3534 200.114 73.3171 198.757 71.5134 197.145C68.9206 194.828 66.8145 191.433 64.6936 184.906C62.5108 178.188 60.629 169.215 57.9355 156.281L52.8074 131.66C52.3352 129.394 51.2076 123.972 52.5937 119.501C53.4478 116.746 54.7703 114.317 56.3514 112.891C58.8991 110.593 62.0241 108.938 65.559 108.202L73.8569 106.797C76.8788 106.238 80.3677 105.405 83.5532 103.725C89.7581 100.454 93.7617 93.8503 94.0557 86.4019C94.2064 82.5782 93.5172 78.793 92.7827 75.5792L90.6545 66.8073C89.8277 62.8368 90.0924 59.1754 91.1438 55.6046C91.7565 53.5232 93.1462 51.4455 95.2449 49.4378C98.4265 46.3934 102.802 45.4601 105.475 44.8898C108.148 44.3197 110.97 43.7217 113.329 43.2304C127.844 40.2076 133.148 39.2266 137.445 39.9025C144.895 41.0746 151.297 45.4246 155.14 51.5808C156.102 53.1224 156.993 55.2258 158.018 58.9802C159.063 62.8076 160.097 67.7557 161.583 74.8891L170.623 118.297C171.573 122.862 175.794 125.844 180.05 124.957C184.306 124.071 186.985 119.652 186.034 115.087L176.936 71.3978C175.523 64.6134 174.378 59.116 173.169 54.6858C171.923 50.1212 170.466 46.1227 168.194 42.4843C161.642 31.9858 151.041 25.0322 139.29 23.1835C131.958 22.0302 120.309 24.4596 108.004 27.027C85.5306 31.7039 72.1822 34.4819 62.1029 40.8953C45.9169 51.1944 34.8194 68.2335 31.9214 87.7575C30.9553 94.2649 31.3218 100.962 32.466 108.845C33.5899 116.589 35.557 126.034 38.0645 138.075L42.6321 160.008C45.1921 172.301 47.2652 182.257 49.792 190.033C52.416 198.109 55.8224 204.821 61.6032 209.986C64.5978 212.662 67.9375 214.878 71.5148 216.578C78.3399 219.822 85.55 220.297 93.7252 219.53Z" fill="#6500FF"/>
<g clip-path="url(#clip1_37_44)">
<path opacity="0.4" d="M136.899 100.51C134.784 100.429 132.881 101.76 132.131 103.846L128.576 113.728C123.751 127.143 121.793 132.262 118.235 135.888C114.677 139.513 109.788 141.369 96.9926 145.909L87.5661 149.252C85.5759 149.958 84.2432 151.924 84.2259 154.179C84.2087 156.433 85.5105 158.501 87.4887 159.36L96.8584 163.429C109.577 168.953 114.434 171.186 117.935 175.083C121.436 178.982 123.314 184.249 127.931 198.028L131.332 208.179C132.05 210.322 133.931 211.799 136.047 211.881C138.162 211.962 140.065 210.631 140.816 208.545L144.37 198.662C149.195 185.248 151.152 180.129 154.71 176.503C158.269 172.878 163.158 171.022 175.953 166.482L185.38 163.139C187.37 162.433 188.703 160.467 188.72 158.212C188.737 155.958 187.435 153.89 185.457 153.031L176.087 148.962C163.369 143.438 158.512 141.205 155.011 137.308C151.51 133.409 149.632 128.142 145.015 114.363L141.614 104.212C140.896 102.069 139.015 100.592 136.899 100.51Z" fill="#BB93F9"/>
</g>
</g>
<path d="M270.788 168.888C248.9 168.888 235.716 155.704 235.716 135.352C235.716 114.872 249.156 101.56 269.508 101.56C289.22 101.56 302.532 113.848 302.788 133.176C302.788 135.096 302.66 137.272 302.276 139.32H254.532V140.216C254.916 149.56 260.932 155.192 270.02 155.192C277.316 155.192 282.436 151.992 283.972 145.848H301.764C299.716 158.648 288.324 168.888 270.788 168.888ZM254.916 127.544H284.612C283.332 119.48 277.828 115 269.636 115C261.828 115 255.94 119.736 254.916 127.544ZM370.251 152.888H372.299V168.12H363.083C353.739 168.12 350.795 163.64 350.923 157.368C346.315 164.664 339.659 168.888 329.419 168.888C315.211 168.888 304.971 162.104 304.971 149.56C304.971 135.608 315.467 127.672 335.179 127.672H348.235V124.472C348.235 118.584 344.011 114.744 336.459 114.744C329.419 114.744 324.683 117.944 323.915 122.808H306.507C307.787 110.008 319.563 101.56 336.971 101.56C355.403 101.56 366.027 109.752 366.027 125.496V148.792C366.027 152.248 367.435 152.888 370.251 152.888ZM348.235 140.984V139.704H335.051C327.499 139.704 323.147 142.776 323.147 148.28C323.147 152.888 326.859 155.832 332.875 155.832C342.347 155.832 348.107 149.944 348.235 140.984ZM371.089 146.232H388.241C388.881 151.992 393.873 155.96 402.705 155.96C410.257 155.96 414.865 153.528 414.865 148.92C414.865 143.544 410.385 143.16 399.761 141.752C384.401 139.96 372.497 136.504 372.497 122.936C372.497 109.88 383.889 101.304 400.785 101.432C418.449 101.432 430.609 109.24 431.505 122.68H414.225C413.713 117.432 408.721 114.232 401.425 114.232C394.385 114.232 389.777 116.792 389.777 121.016C389.777 126.008 395.409 126.52 404.881 127.672C419.985 129.208 432.529 132.664 432.529 147.512C432.529 160.568 420.241 168.888 402.577 168.888C384.273 168.888 371.857 160.312 371.089 146.232ZM453.735 168.504L428.391 102.328H447.591L463.591 149.176L479.207 102.328H498.535L469.351 177.464C465.255 188.344 461.927 193.72 451.687 193.72H434.151V178.488H444.135C448.743 178.488 450.279 177.336 452.071 172.856L453.735 168.504ZM505.907 149.304V117.56H495.027V102.328H505.907V83.8964H523.955V102.328H539.059V117.56H523.955V146.36C523.955 150.968 525.747 152.888 530.483 152.888H539.443V168.12H524.723C512.179 168.12 505.907 161.848 505.907 149.304ZM574.188 168.888C552.3 168.888 539.116 155.704 539.116 135.352C539.116 114.872 552.556 101.56 572.908 101.56C592.62 101.56 605.932 113.848 606.188 133.176C606.188 135.096 606.06 137.272 605.676 139.32H557.932V140.216C558.316 149.56 564.332 155.192 573.42 155.192C580.716 155.192 585.836 151.992 587.372 145.848H605.164C603.116 158.648 591.724 168.888 574.188 168.888ZM558.316 127.544H588.012C586.732 119.48 581.228 115 573.036 115C565.228 115 559.34 119.736 558.316 127.544ZM647.923 102.328H650.995V118.712H643.827C633.075 118.712 628.979 125.88 628.979 135.864V168.12H610.931V102.328H627.315L628.979 112.184C632.563 106.296 637.683 102.328 647.923 102.328ZM732.656 101.56C746.224 101.56 756.976 109.24 756.976 130.36V168.12H738.928V131.384C738.928 121.528 735.344 116.408 727.536 116.408C719.728 116.408 714.48 122.168 714.48 132.152V168.12H696.432V131.384C696.432 121.528 692.848 116.408 684.912 116.408C677.104 116.408 671.984 122.424 671.984 132.28V168.12H653.936V102.328H669.68L671.344 110.52C675.312 105.4 681.072 101.688 690.672 101.56C698.736 101.432 706.288 104.376 710.384 112.696C714.992 105.656 722.672 101.56 732.656 101.56ZM760.119 146.232H777.271C777.911 151.992 782.903 155.96 791.735 155.96C799.287 155.96 803.895 153.528 803.895 148.92C803.895 143.544 799.415 143.16 788.791 141.752C773.431 139.96 761.527 136.504 761.527 122.936C761.527 109.88 772.919 101.304 789.815 101.432C807.479 101.432 819.639 109.24 820.535 122.68H803.255C802.743 117.432 797.751 114.232 790.455 114.232C783.415 114.232 778.807 116.792 778.807 121.016C778.807 126.008 784.439 126.52 793.911 127.672C809.015 129.208 821.559 132.664 821.559 147.512C821.559 160.568 809.271 168.888 791.607 168.888C773.303 168.888 760.887 160.312 760.119 146.232Z" fill="#BB93F9"/>
<defs>
<clipPath id="clip0_37_44">
<rect width="194.009" height="208.118" fill="white" transform="translate(0 39.5544) rotate(-11.764)"/>
</clipPath>
<clipPath id="clip1_37_44">
<rect width="114.312" height="121.747" fill="white" transform="matrix(0.999256 0.0385727 -0.0076575 0.999971 76.9355 99.1204)"/>
</clipPath>
</defs>
</svg>
