<svg width="898" height="244" viewBox="0 0 898 244" fill="none" xmlns="http://www.w3.org/2000/svg">
<g clip-path="url(#clip0_37_44)">
<path opacity="0.4" d="M93.7252 219.53C101.68 218.783 98.2205 219.504 110.417 216.964C114.688 216.075 117.377 211.638 116.423 207.057C115.469 202.474 111.232 199.481 106.961 200.371C94.2305 203.022 98.9272 202.032 91.8855 202.693C84.9698 203.342 80.8453 202.724 77.566 201.165C75.3534 200.114 73.3171 198.757 71.5134 197.145C68.9206 194.828 66.8145 191.433 64.6936 184.906C62.5108 178.188 60.629 169.215 57.9355 156.281L52.8074 131.66C52.3352 129.394 51.2076 123.972 52.5937 119.501C53.4478 116.746 54.7703 114.317 56.3514 112.891C58.8991 110.593 62.0241 108.938 65.559 108.202L73.8569 106.797C76.8788 106.238 80.3677 105.405 83.5532 103.725C89.7581 100.454 93.7617 93.8503 94.0557 86.4019C94.2064 82.5782 93.5172 78.793 92.7827 75.5792L90.6545 66.8073C89.8277 62.8368 90.0924 59.1754 91.1438 55.6046C91.7565 53.5232 93.1462 51.4455 95.2449 49.4378C98.4265 46.3934 102.802 45.4601 105.475 44.8898C108.148 44.3197 110.97 43.7217 113.329 43.2304C127.844 40.2076 133.148 39.2266 137.445 39.9025C144.895 41.0746 151.297 45.4246 155.14 51.5808C156.102 53.1224 156.993 55.2258 158.018 58.9802C159.063 62.8076 160.097 67.7557 161.583 74.8891L170.623 118.297C171.573 122.862 175.794 125.844 180.05 124.957C184.306 124.071 186.985 119.652 186.034 115.087L176.936 71.3978C175.523 64.6134 174.378 59.116 173.169 54.6858C171.923 50.1212 170.466 46.1227 168.194 42.4843C161.642 31.9858 151.041 25.0322 139.29 23.1835C131.958 22.0302 120.309 24.4596 108.004 27.027C85.5306 31.7039 72.1822 34.4819 62.1029 40.8953C45.9169 51.1944 34.8194 68.2335 31.9214 87.7575C30.9553 94.2649 31.3218 100.962 32.466 108.845C33.5899 116.589 35.557 126.034 38.0645 138.075L42.6321 160.008C45.1921 172.301 47.2652 182.257 49.792 190.033C52.416 198.109 55.8224 204.821 61.6032 209.986C64.5978 212.662 67.9375 214.878 71.5148 216.578C78.3399 219.822 85.55 220.297 93.7252 219.53Z" fill="#6500FF"/>
<g clip-path="url(#clip1_37_44)">
<path opacity="0.4" d="M136.899 100.51C134.784 100.429 132.881 101.76 132.131 103.846L128.576 113.728C123.751 127.143 121.793 132.262 118.235 135.888C114.677 139.513 109.788 141.369 96.9926 145.909L87.5661 149.252C85.5759 149.958 84.2432 151.924 84.2259 154.179C84.2087 156.433 85.5105 158.501 87.4887 159.36L96.8584 163.429C109.577 168.953 114.434 171.186 117.935 175.083C121.436 178.982 123.314 184.249 127.931 198.028L131.332 208.179C132.05 210.322 133.931 211.799 136.047 211.881C138.162 211.962 140.065 210.631 140.816 208.545L144.37 198.662C149.195 185.248 151.152 180.129 154.71 176.503C158.269 172.878 163.158 171.022 175.953 166.482L185.38 163.139C187.37 162.433 188.703 160.467 188.72 158.212C188.737 155.958 187.435 153.89 185.457 153.031L176.087 148.962C163.369 143.438 158.512 141.205 155.011 137.308C151.51 133.409 149.632 128.142 145.015 114.363L141.614 104.212C140.896 102.069 139.015 100.592 136.899 100.51Z" fill="#BB93F9"/>
</g>
</g>
<path d="M239.684 168.12V78.5204H299.844V95.0324H258.884V115.128H292.164V130.872H258.884V151.608H301.252V168.12H239.684ZM363.286 152.888H365.334V168.12H356.118C346.774 168.12 343.83 163.64 343.958 157.368C339.35 164.664 332.694 168.888 322.454 168.888C308.246 168.888 298.006 162.104 298.006 149.56C298.006 135.608 308.502 127.672 328.214 127.672H341.27V124.472C341.27 118.584 337.046 114.744 329.494 114.744C322.454 114.744 317.718 117.944 316.95 122.808H299.542C300.822 110.008 312.598 101.56 330.006 101.56C348.438 101.56 359.062 109.752 359.062 125.496V148.792C359.062 152.248 360.47 152.888 363.286 152.888ZM341.27 140.984V139.704H328.086C320.534 139.704 316.182 142.776 316.182 148.28C316.182 152.888 319.894 155.832 325.91 155.832C335.382 155.832 341.142 149.944 341.27 140.984ZM360.284 146.232H377.436C378.076 151.992 383.068 155.96 391.9 155.96C399.452 155.96 404.06 153.528 404.06 148.92C404.06 143.544 399.58 143.16 388.956 141.752C373.596 139.96 361.692 136.504 361.692 122.936C361.692 109.88 373.084 101.304 389.98 101.432C407.644 101.432 419.804 109.24 420.7 122.68H403.42C402.908 117.432 397.916 114.232 390.62 114.232C383.58 114.232 378.972 116.792 378.972 121.016C378.972 126.008 384.604 126.52 394.076 127.672C409.18 129.208 421.724 132.664 421.724 147.512C421.724 160.568 409.436 168.888 391.772 168.888C373.468 168.888 361.052 160.312 360.284 146.232ZM439.09 168.504L413.746 102.328H432.946L448.946 149.176L464.562 102.328H483.89L454.706 177.464C450.61 188.344 447.282 193.72 437.042 193.72H419.506V178.488H429.49C434.098 178.488 435.634 177.336 437.426 172.856L439.09 168.504ZM487.422 149.304V117.56H476.542V102.328H487.422V83.8964H505.47V102.328H520.574V117.56H505.47V146.36C505.47 150.968 507.262 152.888 511.998 152.888H520.958V168.12H506.238C493.694 168.12 487.422 161.848 487.422 149.304ZM551.863 168.888C529.975 168.888 516.791 155.704 516.791 135.352C516.791 114.872 530.231 101.56 550.583 101.56C570.295 101.56 583.607 113.848 583.863 133.176C583.863 135.096 583.735 137.272 583.351 139.32H535.607V140.216C535.991 149.56 542.007 155.192 551.095 155.192C558.391 155.192 563.511 151.992 565.047 145.848H582.839C580.791 158.648 569.399 168.888 551.863 168.888ZM535.991 127.544H565.687C564.407 119.48 558.903 115 550.711 115C542.903 115 537.015 119.736 535.991 127.544ZM621.758 102.328H624.83V118.712H617.662C606.91 118.712 602.814 125.88 602.814 135.864V168.12H584.766V102.328H601.15L602.814 112.184C606.398 106.296 611.518 102.328 621.758 102.328ZM702.651 101.56C716.219 101.56 726.971 109.24 726.971 130.36V168.12H708.923V131.384C708.923 121.528 705.339 116.408 697.531 116.408C689.723 116.408 684.475 122.168 684.475 132.152V168.12H666.427V131.384C666.427 121.528 662.843 116.408 654.907 116.408C647.099 116.408 641.979 122.424 641.979 132.28V168.12H623.931V102.328H639.675L641.339 110.52C645.307 105.4 651.067 101.688 660.667 101.56C668.731 101.432 676.283 104.376 680.379 112.696C684.987 105.656 692.667 101.56 702.651 101.56ZM726.274 146.232H743.426C744.066 151.992 749.058 155.96 757.89 155.96C765.442 155.96 770.05 153.528 770.05 148.92C770.05 143.544 765.57 143.16 754.946 141.752C739.586 139.96 727.682 136.504 727.682 122.936C727.682 109.88 739.074 101.304 755.97 101.432C773.634 101.432 785.794 109.24 786.69 122.68H769.41C768.898 117.432 763.906 114.232 756.61 114.232C749.57 114.232 744.962 116.792 744.962 121.016C744.962 126.008 750.594 126.52 760.066 127.672C775.17 129.208 787.714 132.664 787.714 147.512C787.714 160.568 775.426 168.888 757.762 168.888C739.458 168.888 727.042 160.312 726.274 146.232Z" fill="black"/>
<path d="M786.231 158.264C786.231 151.992 790.839 147.512 797.111 147.512C803.255 147.512 807.991 151.992 807.991 158.264C807.991 164.408 803.255 168.888 797.111 168.888C790.839 168.888 786.231 164.408 786.231 158.264ZM873.021 152.888H875.069V168.12H865.853C856.509 168.12 853.565 163.64 853.693 157.368C849.085 164.664 842.429 168.888 832.189 168.888C817.981 168.888 807.741 162.104 807.741 149.56C807.741 135.608 818.237 127.672 837.949 127.672H851.005V124.472C851.005 118.584 846.781 114.744 839.229 114.744C832.189 114.744 827.453 117.944 826.685 122.808H809.277C810.557 110.008 822.333 101.56 839.741 101.56C858.173 101.56 868.797 109.752 868.797 125.496V148.792C868.797 152.248 870.205 152.888 873.021 152.888ZM851.005 140.984V139.704H837.821C830.269 139.704 825.917 142.776 825.917 148.28C825.917 152.888 829.629 155.832 835.645 155.832C845.117 155.832 850.877 149.944 851.005 140.984ZM882.179 95.2884C876.291 95.2884 871.683 90.9364 871.683 85.1764C871.683 79.2884 876.291 74.9364 882.179 74.9364C888.067 74.9364 892.675 79.2884 892.675 85.1764C892.675 90.9364 888.067 95.2884 882.179 95.2884ZM873.091 168.12V102.328H891.267V168.12H873.091Z" fill="#BB93F9"/>
<defs>
<clipPath id="clip0_37_44">
<rect width="194.009" height="208.118" fill="white" transform="translate(0 39.5544) rotate(-11.764)"/>
</clipPath>
<clipPath id="clip1_37_44">
<rect width="114.312" height="121.747" fill="white" transform="matrix(0.999256 0.0385727 -0.0076575 0.999971 76.9355 99.1204)"/>
</clipPath>
</defs>
</svg>
