<svg width="193" height="214" viewBox="0 0 193 214" fill="none" xmlns="http://www.w3.org/2000/svg">
<path opacity="0.4" d="M74.9185 204.417C82.8735 203.67 79.4139 204.392 91.61 201.852C95.8815 200.962 98.5705 196.526 97.6164 191.944C96.662 187.362 92.4258 184.369 88.1543 185.258C75.4239 187.909 80.1205 186.92 73.0789 187.58C66.1632 188.23 62.0387 187.612 58.7594 186.053C56.5468 185.002 54.5105 183.645 52.7067 182.032C50.114 179.716 48.0079 176.321 45.887 169.793C43.7042 163.076 41.8224 154.103 39.1289 141.169L34.0008 116.548C33.5286 114.281 32.4009 108.86 33.7871 104.389C34.6411 101.634 35.9636 99.205 37.5447 97.7789C40.0925 95.481 43.2174 93.8261 46.7523 93.0899L55.0502 91.6851C58.0722 91.1256 61.5611 90.2927 64.7466 88.6132C70.9515 85.3416 74.955 78.738 75.249 71.2896C75.3998 67.4659 74.7106 63.6807 73.9761 60.4669L71.8479 51.695C71.021 47.7245 71.2857 44.0631 72.3372 40.4923C72.9499 38.4109 74.3396 36.3332 76.4382 34.3255C79.6198 31.2811 83.995 30.3478 86.6688 29.7775C89.3418 29.2074 92.1634 28.6094 94.5225 28.1181C109.037 25.0953 114.341 24.1143 118.639 24.7902C126.088 25.9623 132.491 30.3123 136.333 36.4685C137.295 38.0101 138.187 40.1135 139.211 43.8679C140.256 47.6953 141.291 52.6434 142.776 59.7768L151.816 103.184C152.767 107.749 156.988 110.731 161.243 109.845C165.499 108.959 168.178 104.54 167.227 99.975L158.129 56.2855C156.716 49.5011 155.571 44.0037 154.362 39.5735C153.116 35.0089 151.659 31.0104 149.388 27.372C142.835 16.8735 132.235 9.9199 120.483 8.07121C113.151 6.91786 101.502 9.34734 89.1969 11.9147C66.724 16.5916 53.3756 19.3696 43.2962 25.783C27.1102 36.0821 16.0128 53.1212 13.1147 72.6452C12.1487 79.1526 12.5152 85.8498 13.6593 93.7327C14.7833 101.477 16.7504 110.922 19.2579 122.963L23.8254 144.895C26.3855 157.189 28.4586 167.145 30.9854 174.921C33.6094 182.996 37.0158 189.709 42.7966 194.873C45.7912 197.549 49.1309 199.766 52.7082 201.466C59.5333 204.71 66.7434 205.184 74.9185 204.417Z" fill="#6500FF"/>
<path opacity="0.4" d="M108.937 181.681C103.245 181.311 98.0044 177.729 95.7936 172.063C93.5827 166.398 95.0129 160.213 98.9492 156.085C98.0347 154.93 97.2748 153.622 96.7127 152.182C94.0094 145.254 96.7504 137.544 102.864 133.777C101.903 127.8 105.195 121.757 111.063 119.467C117.821 116.83 125.437 120.171 128.074 126.929L150.112 183.407C152.749 190.165 149.408 197.781 142.65 200.418C136.782 202.708 130.267 200.491 126.926 195.443C119.877 196.812 112.638 192.996 109.935 186.068C109.373 184.628 109.046 183.151 108.937 181.681Z" fill="#A66CFF"/>
<path fill-rule="evenodd" clip-rule="evenodd" d="M150.338 192.327C153.636 194.151 157.69 194.549 161.475 193.072C167.343 190.782 170.634 184.739 169.673 178.762C175.787 174.995 178.528 167.285 175.825 160.357C175.263 158.917 174.503 157.609 173.588 156.454C177.524 152.326 178.955 146.142 176.744 140.476C174.533 134.81 169.292 131.228 163.601 130.857C163.491 129.388 163.164 127.911 162.602 126.471C159.899 119.543 152.661 115.727 145.611 117.096C142.271 112.048 135.756 109.831 129.888 112.121C126.103 113.597 123.39 116.636 122.198 120.211C124.789 121.643 126.913 123.955 128.073 126.928L150.111 183.406C151.271 186.38 151.274 189.519 150.338 192.327ZM163.289 178.264C164.709 181.903 162.91 186.004 159.271 187.424C155.632 188.844 151.531 187.045 150.111 183.406L128.073 126.928C126.653 123.289 128.452 119.188 132.091 117.768C135.73 116.348 139.831 118.147 141.251 121.786C141.86 123.346 143.618 124.117 145.177 123.508C149.856 121.683 155.129 123.996 156.954 128.674C157.583 130.285 157.721 131.956 157.444 133.536C157.085 135.592 156.023 137.49 154.425 138.868C153.157 139.962 153.016 141.876 154.11 143.144C155.203 144.411 157.117 144.552 158.385 143.459C160.442 141.684 161.96 139.404 162.822 136.89C166.385 136.969 169.721 139.154 171.096 142.68C172.707 146.808 171.095 151.405 167.475 153.679C166.635 154.208 166.106 155.114 166.06 156.106C166.014 157.098 166.457 158.049 167.245 158.653C168.518 159.628 169.549 160.951 170.177 162.561C171.676 166.403 170.384 170.646 167.284 173.051C165.519 170.649 163.009 168.958 160.224 168.181C158.611 167.731 156.939 168.673 156.489 170.285C156.039 171.898 156.982 173.57 158.594 174.02C160.672 174.6 162.449 176.11 163.289 178.264Z" fill="#A66CFF"/>
</svg>
