<svg width="207" height="233" viewBox="0 0 207 233" fill="none" xmlns="http://www.w3.org/2000/svg">
<path opacity="0.4" d="M74.9185 204.417C82.8735 203.67 79.4139 204.392 91.61 201.852C95.8815 200.962 98.5705 196.526 97.6164 191.944C96.662 187.362 92.4258 184.369 88.1543 185.258C75.4239 187.909 80.1205 186.92 73.0789 187.58C66.1632 188.23 62.0387 187.612 58.7594 186.053C56.5468 185.002 54.5105 183.645 52.7067 182.032C50.114 179.716 48.0079 176.321 45.887 169.793C43.7042 163.076 41.8224 154.103 39.1289 141.169L34.0008 116.548C33.5286 114.281 32.4009 108.86 33.7871 104.389C34.6411 101.634 35.9636 99.205 37.5447 97.7789C40.0925 95.481 43.2174 93.8261 46.7523 93.0899L55.0502 91.6851C58.0722 91.1256 61.5611 90.2927 64.7466 88.6132C70.9515 85.3416 74.955 78.738 75.249 71.2896C75.3998 67.4659 74.7106 63.6807 73.9761 60.4669L71.8479 51.695C71.021 47.7245 71.2857 44.0631 72.3372 40.4923C72.9499 38.4109 74.3396 36.3332 76.4382 34.3255C79.6198 31.2811 83.995 30.3478 86.6688 29.7775C89.3418 29.2074 92.1634 28.6094 94.5225 28.1181C109.037 25.0953 114.341 24.1143 118.639 24.7902C126.088 25.9623 132.491 30.3123 136.333 36.4685C137.295 38.0101 138.187 40.1135 139.211 43.8679C140.256 47.6953 141.291 52.6434 142.776 59.7768L151.816 103.184C152.767 107.749 156.988 110.731 161.243 109.845C165.499 108.959 168.178 104.54 167.227 99.975L158.129 56.2855C156.716 49.5011 155.571 44.0037 154.362 39.5735C153.116 35.0089 151.659 31.0104 149.388 27.372C142.835 16.8735 132.235 9.9199 120.483 8.07121C113.151 6.91786 101.502 9.34735 89.1969 11.9147C66.724 16.5916 53.3756 19.3696 43.2962 25.783C27.1102 36.0821 16.0128 53.1212 13.1147 72.6452C12.1487 79.1526 12.5152 85.8498 13.6593 93.7327C14.7833 101.477 16.7504 110.922 19.2579 122.963L23.8254 144.895C26.3855 157.189 28.4586 167.145 30.9854 174.921C33.6094 182.996 37.0158 189.709 42.7966 194.873C45.7912 197.549 49.1309 199.766 52.7082 201.466C59.5333 204.71 66.7434 205.184 74.9185 204.417Z" fill="white"/>
<path opacity="0.4" d="M158.036 121.025C155.93 120.807 153.945 122.013 153.062 124.047L148.879 133.68C143.2 146.755 140.916 151.738 137.132 155.127C133.348 158.515 128.35 160.053 115.288 163.759L105.666 166.488C103.634 167.064 102.178 168.94 102.015 171.189C101.853 173.438 103.019 175.585 104.937 176.57L114.026 181.234C126.362 187.566 131.065 190.106 134.308 194.221C137.55 198.337 139.085 203.715 142.805 217.762L145.545 228.111C146.123 230.296 147.905 231.891 150.011 232.109C152.117 232.327 154.102 231.121 154.985 229.087L159.169 219.454C164.848 206.379 167.131 201.396 170.915 198.007C174.7 194.618 179.698 193.081 192.759 189.375L202.382 186.646C204.413 186.07 205.87 184.194 206.032 181.945C206.195 179.696 205.029 177.549 203.11 176.564L194.022 171.9C181.686 165.568 176.982 163.027 173.74 158.912C170.497 154.797 168.962 149.419 165.243 135.372L162.503 125.023C161.924 122.838 160.142 121.243 158.036 121.025Z" fill="#E8E7EA" fill-opacity="0.5"/>
</svg>
