<svg width="802" height="93" viewBox="0 0 802 93" fill="none" xmlns="http://www.w3.org/2000/svg">
<path d="M35.7123 24.8319C32.7683 24.8319 30.2083 27.2639 30.2083 30.3359C30.2083 33.2799 32.7683 35.8399 35.7123 35.8399H68.8643V56.4479H35.8403C32.7683 56.4479 30.2083 59.0079 30.2083 61.9519C30.2083 65.0239 32.7683 67.4559 35.8403 67.4559H70.2723V90.8799H0.000312805V1.27988H30.2083L70.2723 1.40788V24.8319H35.7123ZM148.854 1.27988L166.006 90.8799H134.39L132.086 79.2319C131.318 75.0079 127.606 71.9359 123.254 71.9359C119.03 71.9359 115.318 75.0079 114.55 79.2319L112.246 90.8799H80.6303L97.7823 1.27988H148.854ZM123.51 50.9439C130.678 50.9439 135.286 45.6959 135.286 39.2959C135.286 32.7679 130.678 27.5199 123.51 27.5199C116.342 27.5199 111.734 32.7679 111.734 39.2959C111.734 45.6959 116.342 50.9439 123.51 50.9439ZM211.191 31.2319C229.367 35.4559 248.439 41.7279 248.439 64.6399C248.439 82.4319 237.943 92.2879 209.399 92.2879C186.615 92.2879 172.535 85.2479 172.535 85.2479V59.3919C184.951 66.3039 199.287 68.8639 209.783 68.8639C211.703 68.8639 214.007 67.9679 214.007 65.2799C214.007 62.7199 212.343 61.5679 209.783 61.0559C202.231 59.5199 173.943 52.3519 173.943 27.6479C173.943 9.21588 187.767 -0.00012207 209.399 -0.00012207C231.159 -0.00012207 246.391 7.03988 246.391 7.03988V33.7919C235.127 27.6479 222.455 23.4239 211.191 23.4239C209.143 23.4239 206.967 24.4479 206.967 27.0079C206.967 28.7999 207.863 30.4639 211.191 31.2319ZM310.813 1.27988H350.109L318.365 67.4559V90.8799H286.621V67.4559L255.005 1.27988H294.173L299.293 31.3599C299.549 32.8959 300.957 34.0479 302.493 34.0479C304.029 34.0479 305.437 32.8959 305.693 31.3599L310.813 1.27988Z" fill="black"/>
<path d="M409.14 1.40788H431.156V24.8319H414.644C411.572 24.8319 409.14 27.2639 409.14 30.3359V90.8799H377.396V30.3359C377.396 27.2639 374.964 24.8319 371.892 24.8319H355.38V1.40788H377.396V1.27988H409.14V1.40788ZM477.212 24.8319C474.268 24.8319 471.708 27.2639 471.708 30.3359C471.708 33.2799 474.268 35.8399 477.212 35.8399H510.364V56.4479H477.34C474.268 56.4479 471.708 59.0079 471.708 61.9519C471.708 65.0239 474.268 67.4559 477.34 67.4559H511.772V90.8799H441.5V1.27988H471.708L511.772 1.40788V24.8319H477.212ZM599.63 90.8799H568.014L566.35 74.8799C565.454 66.8159 561.998 64.8959 556.366 64.7679V90.8799H524.75V1.27988H556.366V1.40788H566.094V1.27988C583.502 1.27988 597.71 15.4879 597.71 33.0239C597.71 43.1359 593.102 51.3279 585.806 56.5759C592.59 60.6719 596.942 66.9439 597.71 74.2399L599.63 90.8799ZM550.862 33.0239C550.862 38.7839 554.958 43.3919 561.23 43.3919C567.502 43.3919 571.598 38.7839 571.598 33.0239C571.598 27.3919 567.502 22.6559 561.23 22.6559C554.958 22.6559 550.862 27.3919 550.862 33.0239ZM712.754 1.27988L718.258 90.8799H687.282L686.002 59.3919C686.002 57.7279 684.594 56.4479 683.058 56.4479C681.522 56.4479 680.242 57.5999 679.986 59.0079L674.866 90.8799H650.802L645.682 59.0079C645.426 57.5999 644.146 56.4479 642.61 56.4479C641.074 56.4479 639.666 57.7279 639.666 59.3919L638.386 90.8799H607.41L612.914 1.27988H654.258L659.378 35.9679C659.634 37.6319 661.042 38.9119 662.834 38.9119C664.498 38.9119 666.034 37.6319 666.29 35.9679L671.41 1.27988H712.754ZM764.691 31.2319C782.867 35.4559 801.939 41.7279 801.939 64.6399C801.939 82.4319 791.443 92.2879 762.899 92.2879C740.115 92.2879 726.035 85.2479 726.035 85.2479V59.3919C738.451 66.3039 752.787 68.8639 763.283 68.8639C765.203 68.8639 767.507 67.9679 767.507 65.2799C767.507 62.7199 765.843 61.5679 763.283 61.0559C755.731 59.5199 727.443 52.3519 727.443 27.6479C727.443 9.21588 741.267 -0.00012207 762.899 -0.00012207C784.659 -0.00012207 799.891 7.03988 799.891 7.03988V33.7919C788.627 27.6479 775.955 23.4239 764.691 23.4239C762.643 23.4239 760.467 24.4479 760.467 27.0079C760.467 28.7999 761.363 30.4639 764.691 31.2319Z" fill="#A66CFF"/>
</svg>
