<svg width="311" height="99" viewBox="0 0 311 99" fill="none" xmlns="http://www.w3.org/2000/svg">
<path d="M64.25 38.6875C53.1875 40.1875 42 39.6875 29.4375 38.8125C24.5625 38.5625 22.0625 38.9375 21.0625 43.4375C20.9375 44.3125 21.0625 45.6875 22.0625 47.6875C24.6875 54.0625 30.125 56.1875 38.4375 53.9375C40.0625 53.5 41.3125 52 41.5 50.3125C41.75 46.75 41.75 44.3125 45.5625 42.875C45.9375 42.875 46.25 42.75 46.625 42.75C50 43.1875 52.25 43.3125 53.1875 43.1875C58.9375 42.5 65.8125 42.0625 67.75 47.9375C67.875 48.5 68 49.0625 68 49.4375C67.5625 58.375 65.25 65.375 61.1875 70.5625C56.6875 76.125 47.1875 76.375 37.9375 77.25C30.5625 77.9375 24.4375 77.8125 19.6875 76.8125C17.3125 76.25 14.75 74.875 12.375 72.5C2.0625 62.5625 1.75 53.1875 0.25 40.375C0.25 39.125 0.125 37.875 0.25 36.5625C0.5 33.1875 0.6875 30.4375 0.5 28.1875C0 17.5625 4.0625 8.625 14.0625 4.75C17 3.625 21.3125 2.9375 27.3125 2.8125C40.0625 2.5 59.0625 0 65.875 14.25C66.4375 15.5 67 17.875 67.25 21.25C67.8125 26.25 68.8125 30.875 67.5625 35.75C67.125 37.125 66 38.25 64.5 38.5L64.1875 38.625L64.25 38.6875ZM29.375 27.8125L45.75 27.5C45.75 27.5 46 27.5 46 27.25C46 22.625 42.1875 18.875 37.625 19H37.25C32.75 19 29.125 22.9375 29.125 27.375C29.125 27.625 29.125 27.8125 29.4375 27.8125H29.375ZM78.3125 42.0625C89.375 40.5 100.562 41.0625 113.125 41.875C118 42.1875 120.5 41.75 121.5 37.3125C121.625 36.4375 121.5 35.0625 120.5 33.0625C117.875 26.625 112.438 24.5625 104.188 26.8125C102.5 27.1875 101.25 28.75 101.125 30.4375C100.812 33.9375 100.812 36.4375 97.0625 37.8125C96.625 37.8125 96.375 38 95.9375 38C92.5625 37.5625 90.3125 37.4375 89.375 37.5625C83.625 38.25 76.8125 38.6875 74.875 32.8125C74.75 32.25 74.5625 31.6875 74.5625 31.25C75 22.375 77.375 15.3125 81.4375 10.1875C85.875 4.625 95.375 4.3125 104.625 3.5C112 2.8125 118.188 2.9375 122.938 3.9375C125.25 4.5 127.812 5.875 130.188 8.25C140.562 18.1875 140.812 27.5625 142.312 40.375C142.312 41.625 142.5 42.875 142.312 44.1875C142.062 47.5625 141.938 50.3125 142.062 52.5625C142.625 63.1875 138.562 72.0625 128.5 76C125.625 77.125 121.25 77.8125 115.25 77.9375C102.562 78.25 83.5625 80.75 76.6875 66.5C76.125 65.25 75.625 62.8125 75.3125 59.5C74.75 54.5 73.8125 49.875 75.0625 45C75.4375 43.625 76.5625 42.5 78.125 42.25L78.375 42.0625H78.3125ZM113.25 52.9375L96.875 53.25C96.875 53.25 96.5625 53.25 96.5625 53.5C96.5625 58.125 100.375 61.875 104.938 61.75H105.375C109.875 61.75 113.438 57.8125 113.438 53.375C113.438 53.0625 113.438 52.9375 113.188 52.9375H113.25ZM176.375 61.8125C176.375 62.25 176.5 62.5 176.875 62.625C180.562 63.625 184.188 63.75 188.062 62.8125C190.938 62.0625 194.812 58.25 192 55.3125C186.375 49.4375 177.812 47.3125 170.625 45.625C169.75 45.4375 169.062 45.0625 168.375 44.625C164.125 41.6875 160.375 38.4375 156.688 34.625C155 32.9375 154.875 30.375 154.438 27.75C153.062 19.875 155.875 13.25 162.625 7.875C166 5.25 169.25 3.625 172.312 3.0625C177.25 2.25 181.75 1.6875 185.688 1.25H189.125C194.438 2.25 198.5 3.0625 201.188 3.625C211.5 6 215.562 11.8125 219.5 21.8125C220.938 25.625 226.562 30.9375 220.062 33.75C218 34.75 214.562 35.4375 209.938 35.875C204.438 36.4375 199.625 35.3125 195.562 32.1875C192.812 30.125 194.625 23.875 195.312 21.5C195.562 20.375 195 19.25 193.875 19H183.5C182.062 19 180.938 19.8125 180.375 21.0625C178.875 25.4375 181.125 28.9375 185.75 30.5C187.438 31 191.375 32.6875 197.312 35.5625C198 35.8125 198.688 36.125 199.562 36.25C202.938 37.0625 205.75 38.0625 208.125 39.3125C208.688 39.75 209.25 40.1875 209.75 40.5625C214.875 46.0625 221.062 51.875 218.5 59.3125C216.375 65.9375 213.688 70.3125 207.5 72.8125C204.812 73.9375 202.312 75.0625 199.75 76.1875C199.062 76.5 198.375 76.75 197.562 77.0625C188.125 79.4375 181.812 80.6875 172.188 78.875C163.062 77.1875 157 71.9375 153.625 63.375C152.375 60 150.812 57.0625 149.125 54.375C148.812 54 148.688 53.5625 148.688 53C148.688 50.625 149.812 49.0625 151.938 48.375C159.125 45.6875 169.812 44.5625 176.438 50C177.688 51 178.25 52.6875 177.812 54.25L176.312 61.3125L176.438 61.6875L176.375 61.8125ZM267.625 45.875C267.625 46.1875 268 46.3125 268.125 46.1875C268.125 46.1875 268.312 46.1875 268.438 46.0625C273.188 38.0625 276.812 29.375 279.188 19.8125C279.875 16.875 278.938 15.3125 276.562 14.0625C276.312 13.9375 275.875 13.625 275.75 13.25C274.5 11 274.375 8.75 275.188 6.5C275.562 5.4375 276.562 4.4375 277.812 4.3125C286.75 2.5 294.438 0.625 302.938 1.8125C310.5 2.75 309.5 11.125 305.312 15.0625C301.938 18 300.125 20.125 299.438 21.1875C292.875 33.8125 289.625 42.5625 282.125 60.3125C278.625 68.5625 275.438 74.6875 272.438 78.75C268.5 84.1875 263.938 89.5 258.938 94.6875C255 98.625 246.5 97.9375 242.125 95.375C236.375 92 235.562 85.0625 235.688 79C235.688 78.3125 235.875 77.8125 236.125 77.25C238.75 71.75 242.688 70.6875 248 73.875C251.625 75.9375 255.562 71.9375 257.188 68.9375C257.875 67.4375 257.875 65.875 257.062 64.0625C253.812 57.625 250.938 51.625 248.125 46.0625C245.625 41 241.562 35.8125 239.938 30.6875C239.625 30 239.25 29.3125 238.688 28.75C237.25 27.625 235 24.6875 231.688 20.125C226.938 13.25 230 7.375 238.125 6.8125C247.625 6.3125 253.188 6 254.875 6.125C259.5 6.125 262.438 9.375 260.875 13.9375C259.5 18 258.938 20.25 260.312 24.5625C264.438 36.625 266.75 44 267.625 46.5V45.9375V45.875Z" fill="black"/>
</svg>
