<svg width="537" height="93" viewBox="0 0 537 93" fill="none" xmlns="http://www.w3.org/2000/svg">
<path d="M18.9432 91.6479L1.02319 90.4959L-0.000812054 80.7679L0.767188 71.5519L0.895188 60.6719L1.40719 50.9439L0.639188 40.9599L0.895188 31.2319L1.27919 22.1439L-0.000812054 11.1359L1.27919 2.43192L10.2392 1.79191L10.8792 1.66391L20.0952 2.30391L38.7832 1.02391L45.0552 1.66391L43.2632 9.59991H38.7832L25.0872 9.98391L14.5912 9.34391L9.47119 10.1119L9.21519 12.2879L9.72719 22.0159L9.34319 31.6159L9.85519 37.1199L14.5912 36.3519L28.7992 37.3759L34.3032 36.8639L33.4072 44.7999L31.4872 44.9279H20.9912L10.3672 44.1599V51.3279L9.47119 61.4399L9.72719 71.6799L9.47119 81.6639L24.5752 82.6879L44.2872 80.5119L44.5432 91.2639L18.9432 91.6479ZM53.5582 91.2639L53.9422 90.4959L54.9662 80.7679L57.7822 71.5519L60.2142 60.6719L62.7742 50.9439L64.1822 40.9599L68.7902 22.1439L69.8142 11.1359L73.0142 2.43192L79.5422 1.91991L79.4142 1.79191L80.8222 1.91991L82.2302 1.79191V1.91991L89.3982 2.30391L90.1662 11.3919L92.5982 21.3759L94.5182 31.6159L97.4622 41.7279L99.6382 51.5839L100.662 61.4399L103.094 71.0399L104.63 80.7679L108.086 91.2639L105.782 91.1359L97.4622 91.2639L95.6702 81.9199L94.6462 70.9119L91.5742 58.8799L83.3822 60.0319L74.2942 58.8799H69.4302L68.6622 61.4399L66.7422 71.6799L64.3102 81.6639L63.5422 90.7519L53.5582 91.2639ZM71.7342 50.6879L77.8782 49.7919L86.9662 50.6879L89.9102 50.8159L88.6302 42.1119L86.0702 32.3839L83.6382 21.5039L80.8222 12.2879L80.3102 7.55191L78.7742 12.2879L77.2382 22.0159L74.8062 31.6159L73.7822 41.4719L71.7342 50.6879ZM119.699 86.2719L114.067 82.8159L116.115 71.5519L124.307 80.2559L138.771 82.5599L151.315 80.6399L158.483 72.3199V67.5839L155.795 58.4959L145.939 50.9439L126.867 46.5919L120.211 41.2159L116.243 35.8399L113.683 27.2639L115.987 13.0559L123.795 4.60791L133.395 0.255913H139.795L147.603 1.66391L160.275 5.37592L166.419 13.9519L162.067 20.4799L155.923 16.3839L153.235 12.1599L145.427 9.21591L137.491 8.19191L129.683 11.2639L123.283 20.7359L124.307 27.2639L127.891 35.9679L137.363 39.5519L145.299 40.8319L156.307 47.8719L165.267 55.0399L167.571 67.8399V76.0319L165.011 79.8719L158.611 86.6559L152.467 91.0079L137.619 92.0319L129.683 89.8559L124.435 88.7039L119.699 86.2719ZM201.855 47.1039V51.3279L200.959 61.4399L201.215 71.6799L200.959 81.6639L202.111 90.7519L192.255 91.2639L192.511 90.4959L191.487 80.7679L192.255 71.5519L192.383 60.6719L192.895 50.9439L192.639 46.9759L189.439 40.9599L181.887 22.1439L175.743 11.1359L173.183 1.66391L181.759 1.15191L185.471 12.2879L190.335 22.0159L194.047 31.6159L197.247 37.5039L200.447 31.6159L204.159 22.0159L209.023 12.2879L212.479 1.79191L221.311 2.43192L218.751 11.1359L212.607 22.1439L205.055 40.9599L201.855 47.1039Z" fill="#373737"/>
<path d="M266.869 1.02391L276.981 1.40791L275.957 17.0239L278.261 35.9679L276.725 55.9359L265.077 53.3759L257.269 53.5039V61.0559L257.653 70.6559L257.141 80.3839L258.293 90.8799L249.205 90.2399L247.925 81.5359L249.205 70.5279L248.821 61.4399L248.181 53.1199L235.509 54.0159L228.085 52.8639L226.933 38.7839L229.621 25.4719L226.933 14.4639L227.829 2.68791L243.957 1.66391H254.453L255.605 1.79191L266.869 1.02391ZM305.693 91.6479L287.773 90.4959L286.749 80.7679L287.517 71.5519L287.645 60.6719L288.157 50.9439L287.389 40.9599L287.645 31.2319L288.029 22.1439L286.749 11.1359L288.029 2.43192L296.989 1.79191L297.629 1.66391L306.845 2.30391L325.533 1.02391L331.805 1.66391L331.293 9.08791L331.805 21.1199L330.013 30.0799H325.533L311.837 30.4639L301.341 29.8239L296.093 30.5919V31.6159L296.221 33.4079L301.341 32.6399L315.549 33.6639L321.053 33.1519L321.821 40.4479L320.157 51.1999L318.237 51.3279H307.741L297.117 50.5599V51.3279L296.221 53.6319L311.325 54.6559L331.037 52.4799V57.9839L329.885 70.9119L331.293 81.9199V91.2639L305.693 91.6479ZM342.392 91.2639L342.648 90.4959L341.624 80.7679L342.392 71.5519L342.52 60.6719L343.032 50.9439L342.264 40.9599L342.52 31.2319L342.904 22.1439L341.624 11.1359L342.904 2.43192L354.296 0.895912H363.512L371.192 -9.15527e-05L383.864 1.79191L393.08 8.31992L395.384 13.4399V19.4559L393.592 31.2319L391.032 37.7599L381.688 47.4879H371.704L364.664 47.8719L366.584 50.3039L371.448 60.6719L385.4 80.7679L389.496 87.4239L391.16 91.2639H368.504L352.248 90.7519L342.392 91.2639ZM406.017 91.2639L406.273 90.4959L405.249 80.7679L406.017 71.5519L406.145 60.6719L406.657 50.9439L405.889 40.9599L406.145 31.2319L406.529 22.1439L405.249 11.1359L406.529 2.43192L415.617 1.79191V1.91991L417.537 1.79191L419.585 12.2879L423.041 22.0159L425.473 31.6159L429.441 41.4719L432.513 51.3279L434.561 61.4399L437.889 71.6799L439.681 78.3359L441.473 71.6799L444.801 61.4399L446.849 51.3279L449.921 41.4719L453.889 31.6159L456.321 22.0159L459.777 12.2879L461.825 1.79191L467.841 2.17591L473.857 1.79191L472.705 12.2879L473.217 22.0159L472.833 31.6159L473.857 41.4719V51.3279L472.961 61.4399L473.217 71.6799L472.961 81.6639L474.113 90.7519L456.833 90.4959L444.545 91.2639L439.681 91.0079L434.817 91.2639L418.945 90.6239L406.017 91.2639ZM488.574 86.2719L482.942 82.8159L484.99 71.5519L499.71 50.6879L495.742 46.5919L489.086 41.2159L485.118 35.8399L482.558 27.2639L484.862 13.0559L492.67 4.60791L502.27 0.255913H508.67L516.478 1.66391L529.15 5.37592L535.294 13.9519L526.718 24.8319L517.886 41.0879L525.182 47.8719L534.142 55.0399L536.446 67.8399V76.0319L533.886 79.8719L527.486 86.6559L521.342 91.0079L506.494 92.0319L498.558 89.8559L493.31 88.7039L488.574 86.2719Z" fill="#A66CFF"/>
</svg>
