<svg width="907" height="215" viewBox="0 0 907 215" fill="none" xmlns="http://www.w3.org/2000/svg">
<path d="M0 40L907 0L895 214.5L0 195V40Z" fill="#A66CFF"/>
<path d="M229.1 81.25C219.35 81.25 213.95 95.8 214.4 110.35C214.4 111.1 214.4 111.85 214.55 112.6C225.35 108.55 242.6 113.95 242.9 101.8C243.05 94.6 237.8 81.25 229.1 81.25ZM229.1 72.7C244.7 72.7 259.1 84.25 258.95 101.35C258.8 122.65 225.05 113.65 215.45 119.65C221.3 147.25 248.9 137.95 251.15 125.2L259.7 128.95C244.55 161.65 194.45 152.35 194.6 110.5C194.6 91.6 206.15 72.7 229.1 72.7ZM305.963 126.25V111.55C301.013 108.4 293.063 104.5 288.413 107.65C280.763 112.9 281.963 130.9 291.563 132.55C297.263 133.6 302.213 130.6 305.963 126.25ZM305.963 138.1C301.313 143.95 295.163 148.45 288.113 148.75C259.913 149.65 259.313 97.15 290.363 100.45C295.913 101.05 301.163 102.85 305.963 105.55V94C305.663 78.7 286.163 78.55 274.613 92.35L270.713 83.5C284.513 65.8 327.263 70.45 327.263 89.65V133.6C327.263 136.9 329.963 139.6 333.113 139.6H335.363V148H322.463C318.713 148 315.113 146.65 312.413 144.1L305.963 138.1ZM342.431 133.45C337.031 121.9 355.931 118.3 356.231 130.45C356.981 146.65 399.281 139.3 372.431 121C365.681 116.5 357.131 111.85 350.981 106.75C341.381 98.65 339.731 89.95 343.481 83.35C352.481 68.05 390.281 68.2 398.231 86.8C403.481 98.2 385.931 101.8 384.431 89.95C382.331 74.5 340.031 79.45 368.231 98.8C375.131 103.45 383.531 108.4 389.531 113.5C399.431 121.75 401.381 130.15 397.631 136.75C389.231 152.05 351.131 152.5 342.431 133.45ZM432.949 141.1L416.599 87.85C415.399 83.65 411.499 80.8 407.299 80.8H403.849V72.4H442.249V80.8H436.699L452.149 130.9L466.999 80.8H461.449V72.4H486.499V80.8H483.199C478.849 80.8 474.949 83.65 473.749 87.85L456.049 147.4L452.299 160C449.299 171.25 435.349 181.9 422.899 175.3C418.549 173.35 415.999 168.85 416.449 164.05C416.899 159.4 420.349 155.35 424.999 154.3C429.649 153.1 434.449 155.05 436.999 159.1C439.549 162.85 442.849 161.35 444.199 157.6L447.049 148H442.399C438.049 148 434.299 145.3 432.949 141.1ZM488.248 80.8V72.4H488.398C494.398 72.4 499.798 68.95 502.048 63.4L508.798 47.2H519.448V72.4H536.398V80.8H519.448V132.85C519.448 144.1 532.048 140.95 533.698 135.55L536.398 141.4C529.648 152.65 498.148 150.4 498.148 127.75V80.8H488.248ZM573.192 81.25C563.442 81.25 558.042 95.8 558.492 110.35C558.492 111.1 558.492 111.85 558.642 112.6C569.442 108.55 586.692 113.95 586.992 101.8C587.142 94.6 581.892 81.25 573.192 81.25ZM573.192 72.7C588.792 72.7 603.192 84.25 603.042 101.35C602.892 122.65 569.142 113.65 559.542 119.65C565.392 147.25 592.992 137.95 595.242 125.2L603.792 128.95C588.642 161.65 538.542 152.35 538.692 110.5C538.692 91.6 550.242 72.7 573.192 72.7ZM624.105 76.6L629.355 72.4H640.005V81.4C648.405 69.85 665.805 68.95 672.555 81.1C675.255 85.15 674.955 90.4 671.955 94.15C668.955 97.9 664.005 99.25 659.505 97.75C655.005 96.25 652.005 91.9 652.005 87.1C651.705 78.85 640.005 84.1 640.005 96.55V133.6C640.005 136.9 642.705 139.6 645.855 139.6H648.105V148H610.755V139.6H612.855C616.155 139.6 618.705 136.9 618.855 133.6V89.35H610.755V80.8H611.955C616.305 80.95 620.655 79.45 624.105 76.6ZM692.513 76.6L697.763 72.4H708.413V82.9C719.363 69.1 745.763 68.35 750.713 84.1C762.113 67.6 794.663 67.75 794.663 89.65V133.6C794.813 136.9 797.363 139.6 800.663 139.6H802.913V148H765.413V139.6H767.663C770.813 139.6 773.513 136.9 773.513 133.6V89.65C773.513 75.25 751.613 82.15 751.613 96.55V133.6C751.613 136.9 754.163 139.6 757.463 139.6H759.713V148H722.213V139.6H724.463C727.763 139.6 730.313 136.9 730.313 133.6V89.65C730.313 75.25 708.413 82.15 708.413 96.55V133.6C708.413 136.9 711.113 139.6 714.263 139.6H716.513V148H679.163V139.6H681.263C684.563 139.6 687.263 136.9 687.263 133.6V89.35H679.163V80.8H680.363C684.713 80.95 689.063 79.45 692.513 76.6ZM810.009 133.45C804.609 121.9 823.509 118.3 823.809 130.45C824.559 146.65 866.859 139.3 840.009 121C833.259 116.5 824.709 111.85 818.559 106.75C808.959 98.65 807.309 89.95 811.059 83.35C820.059 68.05 857.859 68.2 865.809 86.8C871.059 98.2 853.509 101.8 852.009 89.95C849.909 74.5 807.609 79.45 835.809 98.8C842.709 103.45 851.109 108.4 857.109 113.5C867.009 121.75 868.959 130.15 865.209 136.75C856.809 152.05 818.709 152.5 810.009 133.45Z" fill="white"/>
<g clip-path="url(#clip0_37_44)">
<path opacity="0.4" d="M94.2667 171.496C98.7771 171.072 96.8155 171.481 103.731 170.041C106.152 169.537 107.677 167.022 107.136 164.424C106.595 161.826 104.193 160.129 101.771 160.633C94.5532 162.136 97.2162 161.575 93.2237 161.95C89.3026 162.318 86.9641 161.968 85.1047 161.084C83.8502 160.488 82.6957 159.718 81.673 158.804C80.2029 157.491 79.0088 155.566 77.8063 151.865C76.5687 148.056 75.5017 142.968 73.9745 135.635L71.067 121.675C70.7993 120.39 70.1599 117.316 70.9458 114.782C71.43 113.219 72.1799 111.842 73.0763 111.034C74.5209 109.731 76.2927 108.792 78.2969 108.375L83.0017 107.579C84.7151 107.261 86.6933 106.789 88.4994 105.837C92.0175 103.982 94.2874 100.238 94.4541 96.0146C94.5396 93.8466 94.1488 91.7005 93.7324 89.8783L92.5257 84.9047C92.0569 82.6535 92.207 80.5776 92.8031 78.553C93.1505 77.3729 93.9385 76.1948 95.1284 75.0565C96.9323 73.3304 99.4129 72.8012 100.929 72.4779C102.444 72.1546 104.044 71.8156 105.382 71.537C113.612 69.8231 116.619 69.2669 119.055 69.6502C123.279 70.3147 126.909 72.7811 129.088 76.2716C129.633 77.1456 130.139 78.3382 130.72 80.4669C131.312 82.637 131.899 85.4425 132.741 89.487L137.866 114.099C138.405 116.687 140.799 118.377 143.211 117.875C145.625 117.372 147.143 114.867 146.604 112.279L141.446 87.5075C140.645 83.6609 139.996 80.5439 139.31 78.0321C138.603 75.444 137.777 73.1769 136.49 71.114C132.774 65.1615 126.764 61.2189 120.101 60.1707C115.944 59.5168 109.339 60.8943 102.362 62.3499C89.6205 65.0017 82.0522 66.5768 76.3374 70.213C67.1601 76.0525 60.8681 85.7134 59.2249 96.7832C58.6772 100.473 58.885 104.27 59.5337 108.739C60.171 113.13 61.2863 118.486 62.708 125.313L65.2977 137.748C66.7492 144.718 67.9247 150.363 69.3573 154.772C70.8451 159.351 72.7765 163.156 76.0541 166.085C77.7519 167.602 79.6455 168.859 81.6738 169.823C85.5435 171.662 89.6315 171.931 94.2667 171.496Z" fill="white"/>
<path opacity="0.4" d="M120.886 130.638C120.039 130.605 119.278 131.138 118.977 131.973L117.555 135.929C115.623 141.299 114.84 143.348 113.415 144.799C111.991 146.25 110.034 146.993 104.912 148.81L101.139 150.149C100.342 150.431 99.8089 151.218 99.802 152.121C99.7951 153.023 100.316 153.851 101.108 154.195L104.859 155.823C109.95 158.035 111.894 158.928 113.295 160.488C114.696 162.049 115.448 164.157 117.296 169.673L118.658 173.736C118.945 174.594 119.698 175.185 120.545 175.218C121.392 175.251 122.154 174.718 122.454 173.883L123.877 169.927C125.808 164.557 126.592 162.508 128.016 161.057C129.44 159.606 131.397 158.863 136.519 157.046L140.292 155.707C141.089 155.425 141.622 154.638 141.629 153.735C141.636 152.833 141.115 152.005 140.323 151.661L136.573 150.033C131.482 147.821 129.537 146.928 128.136 145.368C126.735 143.807 125.983 141.699 124.135 136.183L122.774 132.12C122.486 131.262 121.733 130.671 120.886 130.638Z" fill="white"/>
<path d="M142.836 124.314C141.99 124.282 141.228 124.814 140.927 125.649L140.318 127.345C139.452 129.75 139.202 130.318 138.814 130.713C138.426 131.108 137.883 131.349 135.588 132.163L133.971 132.737C133.175 133.02 132.641 133.806 132.634 134.709C132.627 135.612 133.148 136.439 133.94 136.783L135.548 137.481C137.829 138.472 138.368 138.755 138.749 139.18C139.13 139.605 139.372 140.191 140.2 142.662L140.784 144.403C141.071 145.261 141.824 145.852 142.671 145.885C143.518 145.918 144.28 145.385 144.58 144.55L145.19 142.855C146.055 140.449 146.306 139.882 146.694 139.487C147.081 139.092 147.625 138.85 149.919 138.036L151.536 137.462C152.333 137.18 152.866 136.393 152.873 135.49C152.88 134.588 152.359 133.76 151.567 133.416L149.96 132.718C147.679 131.728 147.14 131.444 146.758 131.019C146.377 130.595 146.135 130.008 145.307 127.537L144.724 125.796C144.436 124.938 143.683 124.347 142.836 124.314Z" fill="white"/>
</g>
<defs>
<clipPath id="clip0_37_44">
<rect width="110" height="118" fill="white" transform="translate(41.127 69.4526) rotate(-11.764)"/>
</clipPath>
</defs>
</svg>
