<svg width="731" height="106" viewBox="0 0 731 106" fill="none" xmlns="http://www.w3.org/2000/svg">
<path d="M64.0556 46.7094C52.9931 48.2094 41.8056 47.7094 29.2431 46.8344C24.3681 46.5844 21.8681 46.9594 20.8681 51.4594C20.7431 52.3344 20.8681 53.7094 21.8681 55.7094C24.4931 62.0844 29.9306 64.2094 38.2431 61.9594C39.8681 61.5219 41.1181 60.0219 41.3056 58.3344C41.5556 54.7719 41.5556 52.3344 45.3681 50.8969C45.7431 50.8969 46.0556 50.7719 46.4306 50.7719C49.8056 51.2094 52.0556 51.3344 52.9931 51.2094C58.7431 50.5219 65.6181 50.0844 67.5556 55.9594C67.6806 56.5219 67.8056 57.0844 67.8056 57.4594C67.3681 66.3969 65.0556 73.3969 60.9931 78.5844C56.4931 84.1469 46.9931 84.3969 37.7431 85.2719C30.3681 85.9594 24.2431 85.8344 19.4931 84.8344C17.1181 84.2719 14.5556 82.8969 12.1806 80.5219C1.86806 70.5844 1.55556 61.2094 0.0555556 48.3969C0.0555556 47.1469 -0.0694444 45.8969 0.0555556 44.5844C0.305556 41.2094 0.493056 38.4594 0.305556 36.2094C-0.194444 25.5844 3.86806 16.647 13.8681 12.772C16.8056 11.647 21.1181 10.9595 27.1181 10.8345C39.8681 10.522 58.8681 8.02195 65.6806 22.272C66.2431 23.522 66.8056 25.897 67.0556 29.272C67.6181 34.272 68.6181 38.8969 67.3681 43.7719C66.9306 45.1469 65.8056 46.2719 64.3056 46.5219L63.9931 46.6469L64.0556 46.7094ZM29.1806 35.8344L45.5556 35.5219C45.5556 35.5219 45.8056 35.5219 45.8056 35.2719C45.8056 30.6469 41.9931 26.897 37.4306 27.022H37.0556C32.5556 27.022 28.9306 30.9594 28.9306 35.3969C28.9306 35.6469 28.9306 35.8344 29.2431 35.8344H29.1806Z" fill="black"/>
<path d="M78.1181 50.0844C89.1806 48.5219 100.368 49.0844 112.931 49.8969C117.806 50.2094 120.306 49.7719 121.306 45.3344C121.431 44.4594 121.306 43.0844 120.306 41.0844C117.681 34.6469 112.243 32.5844 103.993 34.8344C102.306 35.2094 101.056 36.7719 100.931 38.4594C100.618 41.9594 100.618 44.4594 96.8681 45.8344C96.4306 45.8344 96.1806 46.0219 95.7431 46.0219C92.3681 45.5844 90.1181 45.4594 89.1806 45.5844C83.4306 46.2719 76.6181 46.7094 74.6806 40.8344C74.5556 40.2719 74.3681 39.7094 74.3681 39.2719C74.8056 30.3969 77.1806 23.3345 81.2431 18.2095C85.6806 12.647 95.1806 12.3345 104.431 11.522C111.806 10.8345 117.993 10.9595 122.743 11.9595C125.056 12.522 127.618 13.897 129.993 16.272C140.368 26.2095 140.618 35.5844 142.118 48.3969C142.118 49.6469 142.306 50.8969 142.118 52.2094C141.868 55.5844 141.743 58.3344 141.868 60.5844C142.431 71.2094 138.368 80.0844 128.306 84.0219C125.431 85.1469 121.056 85.8344 115.056 85.9594C102.368 86.2719 83.3681 88.7719 76.4931 74.5219C75.9306 73.2719 75.4306 70.8344 75.1181 67.5219C74.5556 62.5219 73.6181 57.8969 74.8681 53.0219C75.2431 51.6469 76.3681 50.5219 77.9306 50.2719L78.1806 50.0844H78.1181ZM113.056 60.9594L96.6806 61.2719C96.6806 61.2719 96.3681 61.2719 96.3681 61.5219C96.3681 66.1469 100.181 69.8969 104.743 69.7719H105.181C109.681 69.7719 113.243 65.8344 113.243 61.3969C113.243 61.0844 113.243 60.9594 112.993 60.9594H113.056Z" fill="black"/>
<path d="M176.181 69.8344C176.181 70.2719 176.306 70.5219 176.681 70.6469C180.368 71.6469 183.993 71.7719 187.868 70.8344C190.743 70.0844 194.618 66.2719 191.806 63.3344C186.181 57.4594 177.618 55.3344 170.431 53.6469C169.556 53.4594 168.868 53.0844 168.181 52.6469C163.931 49.7094 160.181 46.4594 156.493 42.6469C154.806 40.9594 154.681 38.3969 154.243 35.7719C152.868 27.8969 155.681 21.272 162.431 15.897C165.806 13.272 169.056 11.647 172.118 11.0845C177.056 10.272 181.556 9.70945 185.493 9.27195H188.931C194.243 10.272 198.306 11.0845 200.993 11.647C211.306 14.022 215.368 19.8345 219.306 29.8345C220.743 33.647 226.368 38.9594 219.868 41.7719C217.806 42.7719 214.368 43.4594 209.743 43.8969C204.243 44.4594 199.431 43.3344 195.368 40.2094C192.618 38.1469 194.431 31.897 195.118 29.522C195.368 28.397 194.806 27.272 193.681 27.022H183.306C181.868 27.022 180.743 27.8345 180.181 29.0845C178.681 33.4595 180.931 36.9594 185.556 38.5219C187.243 39.0219 191.181 40.7094 197.118 43.5844C197.806 43.8344 198.493 44.1469 199.368 44.2719C202.743 45.0844 205.556 46.0844 207.931 47.3344C208.493 47.7719 209.056 48.2094 209.556 48.5844C214.681 54.0844 220.868 59.8969 218.306 67.3344C216.181 73.9594 213.493 78.3344 207.306 80.8344C204.618 81.9594 202.118 83.0844 199.556 84.2094C198.868 84.5219 198.181 84.7719 197.368 85.0844C187.931 87.4594 181.618 88.7094 171.993 86.8969C162.868 85.2094 156.806 79.9594 153.431 71.3969C152.181 68.0219 150.618 65.0844 148.931 62.3969C148.618 62.0219 148.493 61.5844 148.493 61.0219C148.493 58.6469 149.618 57.0844 151.743 56.3969C158.931 53.7094 169.618 52.5844 176.243 58.0219C177.493 59.0219 178.056 60.7094 177.618 62.2719L176.118 69.3344L176.243 69.7094L176.181 69.8344Z" fill="black"/>
<path d="M267.431 53.8969C267.431 54.2094 267.806 54.3344 267.931 54.2094C267.931 54.2094 268.118 54.2094 268.243 54.0844C272.993 46.0844 276.618 37.397 278.993 27.8345C279.681 24.897 278.743 23.3345 276.368 22.0845C276.118 21.9595 275.681 21.647 275.556 21.272C274.306 19.022 274.181 16.772 274.993 14.522C275.368 13.4595 276.368 12.4595 277.618 12.3345C286.556 10.522 294.243 8.64695 302.743 9.83445C310.306 10.772 309.306 19.147 305.118 23.0845C301.743 26.022 299.931 28.147 299.243 29.2095C292.681 41.8345 289.431 50.5844 281.931 68.3344C278.431 76.5844 275.243 82.7094 272.243 86.7719C268.306 92.2094 263.743 97.5219 258.743 102.709C254.806 106.647 246.306 105.959 241.931 103.397C236.181 100.022 235.368 93.0844 235.493 87.0219C235.493 86.3344 235.681 85.8344 235.931 85.2719C238.556 79.7719 242.493 78.7094 247.806 81.8969C251.431 83.9594 255.368 79.9594 256.993 76.9594C257.681 75.4594 257.681 73.8969 256.868 72.0844C253.618 65.6469 250.743 59.6469 247.931 54.0844C245.431 49.0219 241.368 43.8344 239.743 38.7094C239.431 38.0219 239.056 37.3344 238.493 36.7719C237.056 35.6469 234.806 32.7095 231.493 28.147C226.743 21.272 229.806 15.397 237.931 14.8345C247.431 14.3345 252.993 14.022 254.681 14.147C259.306 14.147 262.243 17.397 260.681 21.9595C259.306 26.022 258.743 28.2719 260.118 32.5844C264.243 44.6469 266.556 52.0219 267.431 54.5219V53.8969Z" fill="black"/>
<path d="M355.275 44.2306C355.403 48.4828 355.69 54.0393 356.516 60.9346C356.896 66.0455 358.895 76.9273 365.403 77.6345C370.2 78.0927 374.362 77.5954 377.894 76.2049C382.319 74.184 385.186 75.663 386.134 79.9797C387.185 84.8527 389.036 93.7399 384.886 96.9312C384.598 97.266 384.051 97.4947 383.739 97.5179C371.831 101.724 359.984 104.234 347.286 98.6598C341.129 95.921 339.23 90.6096 336.673 84.031C332.513 72.7458 331.875 59.9453 332.477 47.8048C332.44 47.3062 332.091 46.8307 331.593 46.8678L322.119 47.5718C321.807 47.5949 321.419 47.4357 321.094 47.2719C316.483 45.1076 315.055 39.3852 314.689 34.4613C314.328 29.5997 314.064 26.047 317.404 22.9159C320.397 20.1866 326.741 21.2193 330.583 22.3126C331.081 22.2756 331.455 22.2478 331.543 21.7399L331.515 21.3659C330.99 18.522 329.902 14.8425 328.198 10.4568C325.823 3.80194 329.627 2.70453 335.534 2.07756C338.713 1.84136 350.133 -0.511331 354.584 2.04083C356.676 3.20151 357.565 5.89301 356.543 8.16249C355.082 11.2793 354.139 14.6084 353.343 18.2398C353.367 18.5514 353.404 19.0501 353.902 19.013L354.089 18.9991C358.318 18.5595 363.614 17.2886 365.662 18.7033C367.964 20.1617 369.077 21.6458 369.317 23.1947C370.443 29.065 371.116 33.9034 371.255 37.4654C371.446 45.0972 362.258 44.5891 356.076 44.0458C355.577 44.0828 355.279 44.293 355.316 44.7916L355.275 44.2306Z" fill="#A66CFF"/>
<path d="M455.556 55.2674C444.635 57.583 433.441 57.9134 420.848 57.9717C415.968 58.0837 413.503 58.6429 412.839 63.2046C412.779 64.0865 413.006 65.4485 414.151 67.3689C417.241 73.5318 422.821 75.248 430.944 72.3882C432.532 71.8315 433.668 70.243 433.73 68.5463C433.715 64.975 433.534 62.5442 437.23 60.8282C437.604 60.8004 437.906 60.6526 438.28 60.6248C441.678 60.811 443.932 60.7689 444.857 60.5748C450.54 59.4631 457.364 58.5173 459.732 64.2326C459.898 64.7843 460.064 65.336 460.092 65.71C460.318 74.6553 458.531 81.8074 454.864 87.2817C450.788 93.1624 441.333 94.1157 432.173 95.6737C424.869 96.9058 418.752 97.235 413.941 96.5898C411.531 96.2048 408.873 95.0235 406.329 92.831C395.308 83.685 394.302 74.3589 391.857 61.6928C391.764 60.4463 391.547 59.209 391.574 57.8908C391.573 54.5066 391.557 51.7502 391.203 49.5203C389.917 38.9616 393.306 29.7476 402.991 25.1422C405.837 23.8026 410.087 22.7975 416.061 22.2282C428.753 20.9717 447.516 17.0707 455.365 30.7767C456.019 31.9815 456.756 34.3083 457.255 37.6555C458.187 42.6001 459.527 47.1383 458.642 52.0925C458.307 53.4961 457.269 54.7014 455.791 55.0619L455.489 55.2097L455.556 55.2674ZM419.971 47.0066L436.278 45.4816C436.278 45.4816 436.527 45.463 436.508 45.2137C436.166 40.6014 432.086 37.1443 427.545 37.607L427.171 37.6348C422.684 37.9683 419.36 42.1635 419.689 46.5888C419.708 46.8382 419.722 47.0251 420.033 47.002L419.971 47.0066Z" fill="#A66CFF"/>
<path d="M490.544 27.6613C490.544 27.6613 492.003 27.0515 495.036 25.698C502.302 22.2752 510.555 22.8527 517.726 26.5816C523.14 29.4382 525.606 39.8466 525.972 44.7705C526.06 45.9548 525.52 47.123 524.303 48.4668C524.073 48.7347 523.717 49.0118 523.219 49.0488C520.095 50.033 516.677 50.4123 512.9 50.1916C508.562 50.0125 506.375 46.7281 503.948 43.5868C502.969 42.2181 501.365 41.7106 499.691 41.9603C496.282 42.4643 493.851 44.3371 492.391 47.4539C492.178 47.971 491.966 48.4882 492.008 49.0491C491.423 58.0547 492.104 65.5248 494.28 71.1916C494.67 72.228 496.578 75.972 499.945 82.4904C500.88 84.113 500.923 86.3661 500.044 88.8756C499.947 89.2589 499.716 89.5267 499.36 89.8038C498.703 90.2287 496.912 91.4272 493.618 93.4895C490.146 95.6903 480.268 93.4787 475.371 92.5265C472.065 91.8947 471.16 89.8311 472.473 86.4119C473.767 82.7434 474.842 80.3447 474.296 76.3742C473.469 70.2938 472.779 62.6991 472.241 53.7769C471.778 47.544 470.503 42.1863 469.127 34.6425C468.744 32.8535 467.506 29.6866 464.914 25.1787C463.397 22.4712 462.88 20.5668 463.362 19.4655C464.1 17.5932 465.709 16.4709 468.14 16.2902C473.874 15.8642 480.571 15.7426 488.311 16.1701C491.024 16.4073 492.61 18.3576 491.385 21.2689C490.594 23.2705 489.994 25.3206 489.763 27.2806C489.791 27.6545 489.934 27.8946 490.318 27.9915L490.442 27.9822L490.548 27.7236L490.544 27.6613Z" fill="#A66CFF"/>
<path d="M558.968 19.882C565.584 17.8236 572.474 16.9355 579.88 17.0746L580.441 17.033L588.436 19.1965C589.006 19.2795 589.581 19.4248 590.128 19.1961C592.041 18.8032 594.911 17.7753 598.673 16.1169C601.831 14.7542 606.628 13.5203 613.135 12.5354L613.945 12.4752L625.576 13.8045L625.825 13.786C626.271 13.8782 628.067 14.4341 631.4 15.4399C638.442 17.4235 641.871 22.2452 643.779 29.3733C644.193 30.7214 645.078 33.3506 646.635 37.4339C646.953 38.3503 647.214 39.3337 647.293 40.3933C647.895 46.8038 647.88 54.2002 647.153 62.9657C647.008 65.2327 647.323 67.7789 648.078 70.355C648.12 70.9159 648.598 71.4445 648.875 71.7999C651.461 74.5533 654.202 76.8566 652.55 79.9249C652.342 80.5044 651.924 80.7861 651.386 81.1395C642.525 85.8716 633.806 87.4596 625.297 85.961C618.891 84.9329 619.725 79.2931 622.651 74.8139C624.172 72.5074 624.783 69.7671 624.662 66.4544C624.423 59.0142 623.606 52.2436 622.453 45.9994C621.323 40.0669 618.341 36.2147 613.505 34.3805C607.897 32.2903 604.402 34.1795 602.977 40.3019C602.894 40.8722 602.802 41.3177 602.968 41.8694C603.426 46.3478 603.59 53.6056 603.333 63.6522C603.261 67.7314 604.464 71.2769 607.198 74.3327C609.043 76.3892 610.103 78.0026 610.177 78.9998C610.339 81.1813 609.649 82.862 608.036 83.922C601.098 88.3859 593.284 90.3453 584.412 89.8765C578.627 89.6169 574.09 86.7578 577.519 80.6118C579.499 76.8923 580.613 74.1773 580.728 72.3512C580.942 69.3271 580.549 64.0292 579.663 56.3237C579.011 50.9196 578.065 44.0959 573.976 40.5141C566.945 34.456 559.295 36.0898 558.799 46.2796C558.325 53.3968 558.44 60.8463 559.298 68.1778C559.608 72.3538 561.516 76.0978 564.896 79.4189C567.602 82.1007 566.514 86.0046 563.083 87.0743C559.903 88.1254 555.706 89.0013 550.45 89.9559C549.452 90.03 548.518 90.0995 547.502 89.9242C545.519 89.3822 543.492 89.0941 541.675 89.1038C537.467 88.9778 532.957 86.4926 536.712 82.2025C539.02 79.5242 540.153 75.3663 540.008 70.0499C539.851 67.9307 539.894 62.6004 539.811 53.8951C539.699 49.015 539.171 43.6017 538.433 37.8907C537.192 28.7701 536.285 21.6302 535.929 16.8309C535.493 10.972 538.887 11.0959 543.552 10.6239C548.591 10.1241 553.213 9.90604 557.128 10.3045C558.647 10.505 559.746 11.8021 559.724 13.1826C559.747 13.4942 559.756 13.6189 559.578 13.7574L558.104 18.3794C558.007 18.7626 558.174 19.3143 558.619 19.4065L559.18 19.3648L558.954 19.695L558.968 19.882Z" fill="#A66CFF"/>
<path d="M685.889 61.3408C685.922 61.7771 686.065 62.0171 686.448 62.114C690.199 62.838 693.824 62.694 697.619 61.472C700.43 60.511 704.012 56.4218 700.99 53.7008C694.945 48.2588 686.248 46.7741 678.955 45.6239C678.069 45.5017 677.355 45.1787 676.637 44.7934C672.181 42.1789 668.201 39.2157 664.241 35.6869C662.433 34.1291 662.119 31.5829 661.488 28.9976C659.533 21.2461 661.847 14.4309 668.18 8.5705C671.351 5.70263 674.472 3.84126 677.484 3.05337C682.348 1.87722 686.794 0.982804 690.688 0.254728L694.116 0C699.488 0.603581 703.6 1.11281 706.322 1.47461C716.782 3.0789 721.264 8.57437 725.931 18.2551C727.648 21.9506 733.651 26.8317 727.377 30.1181C725.394 31.2682 722.017 32.2085 717.437 32.9875C711.994 33.9561 707.111 33.1908 702.829 30.3754C699.933 28.5224 701.278 22.1552 701.787 19.7358C701.953 18.5954 701.309 17.5152 700.168 17.3492L689.822 18.118C688.388 18.2245 687.327 19.1182 686.858 20.4064C685.687 24.8806 688.19 28.2042 692.918 29.4197C694.638 29.7933 698.69 31.1843 704.824 33.6114C705.528 33.8098 706.237 34.0705 707.119 34.1303C710.545 34.6905 713.423 35.4793 715.885 36.5499C716.478 36.9445 717.071 37.3391 717.598 37.676C723.116 42.7812 729.717 48.1192 727.713 55.7261C726.085 62.4904 723.729 67.0525 717.744 70.0041C715.147 71.3252 712.737 72.6323 710.265 73.9441C709.603 74.3067 708.936 74.607 708.148 74.9788C698.913 78.0466 692.71 79.761 682.977 78.6667C673.753 77.66 667.318 72.8737 663.317 64.5848C661.821 61.3117 660.045 58.4981 658.163 55.943C657.823 55.5922 657.666 55.1652 657.625 54.6042C657.449 52.2358 658.455 50.5942 660.523 49.7511C667.492 46.5384 678.066 44.6245 685.076 49.5561C686.397 50.4608 687.083 52.1019 686.762 53.6926L685.79 60.8468L685.942 61.2115L685.889 61.3408Z" fill="#A66CFF"/>
</svg>
