<svg width="777" height="185" viewBox="0 0 777 185" fill="none" xmlns="http://www.w3.org/2000/svg">
<path d="M0 30L777 0V185H0V30Z" fill="#A66CFF"/>
<path d="M86.1 67.25C76.35 67.25 70.95 81.8 71.4 96.35C71.4 97.1 71.4 97.85 71.55 98.6C82.35 94.55 99.6 99.95 99.9 87.8C100.05 80.6 94.8 67.25 86.1 67.25ZM86.1 58.7C101.7 58.7 116.1 70.25 115.95 87.35C115.8 108.65 82.05 99.65 72.45 105.65C78.3 133.25 105.9 123.95 108.15 111.2L116.7 114.95C101.55 147.65 51.45 138.35 51.6 96.5C51.6 77.6 63.15 58.7 86.1 58.7ZM162.963 112.25V97.55C158.013 94.4 150.063 90.5 145.413 93.65C137.763 98.9 138.963 116.9 148.563 118.55C154.263 119.6 159.213 116.6 162.963 112.25ZM162.963 124.1C158.313 129.95 152.163 134.45 145.113 134.75C116.913 135.65 116.313 83.15 147.363 86.45C152.913 87.05 158.163 88.85 162.963 91.55V80C162.663 64.7 143.163 64.55 131.613 78.35L127.713 69.5C141.513 51.8 184.263 56.45 184.263 75.65V119.6C184.263 122.9 186.963 125.6 190.113 125.6H192.363V134H179.463C175.713 134 172.113 132.65 169.413 130.1L162.963 124.1ZM199.431 119.45C194.031 107.9 212.931 104.3 213.231 116.45C213.981 132.65 256.281 125.3 229.431 107C222.681 102.5 214.131 97.85 207.981 92.75C198.381 84.65 196.731 75.95 200.481 69.35C209.481 54.05 247.281 54.2 255.231 72.8C260.481 84.2 242.931 87.8 241.431 75.95C239.331 60.5 197.031 65.45 225.231 84.8C232.131 89.45 240.531 94.4 246.531 99.5C256.431 107.75 258.381 116.15 254.631 122.75C246.231 138.05 208.131 138.5 199.431 119.45ZM289.949 127.1L273.599 73.85C272.399 69.65 268.499 66.8 264.299 66.8H260.849V58.4H299.249V66.8H293.699L309.149 116.9L323.999 66.8H318.449V58.4H343.499V66.8H340.199C335.849 66.8 331.949 69.65 330.749 73.85L313.049 133.4L309.299 146C306.299 157.25 292.349 167.9 279.899 161.3C275.549 159.35 272.999 154.85 273.449 150.05C273.899 145.4 277.349 141.35 281.999 140.3C286.649 139.1 291.449 141.05 293.999 145.1C296.549 148.85 299.849 147.35 301.199 143.6L304.049 134H299.399C295.049 134 291.299 131.3 289.949 127.1ZM345.248 66.8V58.4H345.398C351.398 58.4 356.798 54.95 359.048 49.4L365.798 33.2H376.448V58.4H393.398V66.8H376.448V118.85C376.448 130.1 389.048 126.95 390.698 121.55L393.398 127.4C386.648 138.65 355.148 136.4 355.148 113.75V66.8H345.248ZM430.192 67.25C420.442 67.25 415.042 81.8 415.492 96.35C415.492 97.1 415.492 97.85 415.642 98.6C426.442 94.55 443.692 99.95 443.992 87.8C444.142 80.6 438.892 67.25 430.192 67.25ZM430.192 58.7C445.792 58.7 460.192 70.25 460.042 87.35C459.892 108.65 426.142 99.65 416.542 105.65C422.392 133.25 449.992 123.95 452.242 111.2L460.792 114.95C445.642 147.65 395.542 138.35 395.692 96.5C395.692 77.6 407.242 58.7 430.192 58.7ZM481.105 62.6L486.355 58.4H497.005V67.4C505.405 55.85 522.805 54.95 529.555 67.1C532.255 71.15 531.955 76.4 528.955 80.15C525.955 83.9 521.005 85.25 516.505 83.75C512.005 82.25 509.005 77.9 509.005 73.1C508.705 64.85 497.005 70.1 497.005 82.55V119.6C497.005 122.9 499.705 125.6 502.855 125.6H505.105V134H467.755V125.6H469.855C473.155 125.6 475.705 122.9 475.855 119.6V75.35H467.755V66.8H468.955C473.305 66.95 477.655 65.45 481.105 62.6ZM549.513 62.6L554.763 58.4H565.413V68.9C576.363 55.1 602.763 54.35 607.713 70.1C619.113 53.6 651.663 53.75 651.663 75.65V119.6C651.813 122.9 654.363 125.6 657.663 125.6H659.913V134H622.413V125.6H624.663C627.813 125.6 630.513 122.9 630.513 119.6V75.65C630.513 61.25 608.613 68.15 608.613 82.55V119.6C608.613 122.9 611.163 125.6 614.463 125.6H616.713V134H579.213V125.6H581.463C584.763 125.6 587.313 122.9 587.313 119.6V75.65C587.313 61.25 565.413 68.15 565.413 82.55V119.6C565.413 122.9 568.113 125.6 571.263 125.6H573.513V134H536.163V125.6H538.263C541.563 125.6 544.263 122.9 544.263 119.6V75.35H536.163V66.8H537.363C541.713 66.95 546.063 65.45 549.513 62.6ZM667.009 119.45C661.609 107.9 680.509 104.3 680.809 116.45C681.559 132.65 723.859 125.3 697.009 107C690.259 102.5 681.709 97.85 675.559 92.75C665.959 84.65 664.309 75.95 668.059 69.35C677.059 54.05 714.859 54.2 722.809 72.8C728.059 84.2 710.509 87.8 709.009 75.95C706.909 60.5 664.609 65.45 692.809 84.8C699.709 89.45 708.109 94.4 714.109 99.5C724.009 107.75 725.959 116.15 722.209 122.75C713.809 138.05 675.709 138.5 667.009 119.45Z" fill="white"/>
</svg>
