<svg width="907" height="215" viewBox="0 0 907 215" fill="none" xmlns="http://www.w3.org/2000/svg">
<path d="M0 40L907 0L895 214.5L0 195V40Z" fill="#A66CFF"/>
<path d="M229.1 77.25C219.35 77.25 213.95 91.8 214.4 106.35C214.4 107.1 214.4 107.85 214.55 108.6C225.35 104.55 242.6 109.95 242.9 97.8C243.05 90.6 237.8 77.25 229.1 77.25ZM229.1 68.7C244.7 68.7 259.1 80.25 258.95 97.35C258.8 118.65 225.05 109.65 215.45 115.65C221.3 143.25 248.9 133.95 251.15 121.2L259.7 124.95C244.55 157.65 194.45 148.35 194.6 106.5C194.6 87.6 206.15 68.7 229.1 68.7ZM305.963 122.25V107.55C301.013 104.4 293.063 100.5 288.413 103.65C280.763 108.9 281.963 126.9 291.563 128.55C297.263 129.6 302.213 126.6 305.963 122.25ZM305.963 134.1C301.313 139.95 295.163 144.45 288.113 144.75C259.913 145.65 259.313 93.15 290.363 96.45C295.913 97.05 301.163 98.85 305.963 101.55V90C305.663 74.7 286.163 74.55 274.613 88.35L270.713 79.5C284.513 61.8 327.263 66.45 327.263 85.65V129.6C327.263 132.9 329.963 135.6 333.113 135.6H335.363V144H322.463C318.713 144 315.113 142.65 312.413 140.1L305.963 134.1ZM342.431 129.45C337.031 117.9 355.931 114.3 356.231 126.45C356.981 142.65 399.281 135.3 372.431 117C365.681 112.5 357.131 107.85 350.981 102.75C341.381 94.65 339.731 85.95 343.481 79.35C352.481 64.05 390.281 64.2 398.231 82.8C403.481 94.2 385.931 97.8 384.431 85.95C382.331 70.5 340.031 75.45 368.231 94.8C375.131 99.45 383.531 104.4 389.531 109.5C399.431 117.75 401.381 126.15 397.631 132.75C389.231 148.05 351.131 148.5 342.431 129.45ZM432.949 137.1L416.599 83.85C415.399 79.65 411.499 76.8 407.299 76.8H403.849V68.4H442.249V76.8H436.699L452.149 126.9L466.999 76.8H461.449V68.4H486.499V76.8H483.199C478.849 76.8 474.949 79.65 473.749 83.85L456.049 143.4L452.299 156C449.299 167.25 435.349 177.9 422.899 171.3C418.549 169.35 415.999 164.85 416.449 160.05C416.899 155.4 420.349 151.35 424.999 150.3C429.649 149.1 434.449 151.05 436.999 155.1C439.549 158.85 442.849 157.35 444.199 153.6L447.049 144H442.399C438.049 144 434.299 141.3 432.949 137.1ZM488.248 76.8V68.4H488.398C494.398 68.4 499.798 64.95 502.048 59.4L508.798 43.2H519.448V68.4H536.398V76.8H519.448V128.85C519.448 140.1 532.048 136.95 533.698 131.55L536.398 137.4C529.648 148.65 498.148 146.4 498.148 123.75V76.8H488.248ZM573.192 77.25C563.442 77.25 558.042 91.8 558.492 106.35C558.492 107.1 558.492 107.85 558.642 108.6C569.442 104.55 586.692 109.95 586.992 97.8C587.142 90.6 581.892 77.25 573.192 77.25ZM573.192 68.7C588.792 68.7 603.192 80.25 603.042 97.35C602.892 118.65 569.142 109.65 559.542 115.65C565.392 143.25 592.992 133.95 595.242 121.2L603.792 124.95C588.642 157.65 538.542 148.35 538.692 106.5C538.692 87.6 550.242 68.7 573.192 68.7ZM624.105 72.6L629.355 68.4H640.005V77.4C648.405 65.85 665.805 64.95 672.555 77.1C675.255 81.15 674.955 86.4 671.955 90.15C668.955 93.9 664.005 95.25 659.505 93.75C655.005 92.25 652.005 87.9 652.005 83.1C651.705 74.85 640.005 80.1 640.005 92.55V129.6C640.005 132.9 642.705 135.6 645.855 135.6H648.105V144H610.755V135.6H612.855C616.155 135.6 618.705 132.9 618.855 129.6V85.35H610.755V76.8H611.955C616.305 76.95 620.655 75.45 624.105 72.6ZM692.513 72.6L697.763 68.4H708.413V78.9C719.363 65.1 745.763 64.35 750.713 80.1C762.113 63.6 794.663 63.75 794.663 85.65V129.6C794.813 132.9 797.363 135.6 800.663 135.6H802.913V144H765.413V135.6H767.663C770.813 135.6 773.513 132.9 773.513 129.6V85.65C773.513 71.25 751.613 78.15 751.613 92.55V129.6C751.613 132.9 754.163 135.6 757.463 135.6H759.713V144H722.213V135.6H724.463C727.763 135.6 730.313 132.9 730.313 129.6V85.65C730.313 71.25 708.413 78.15 708.413 92.55V129.6C708.413 132.9 711.113 135.6 714.263 135.6H716.513V144H679.163V135.6H681.263C684.563 135.6 687.263 132.9 687.263 129.6V85.35H679.163V76.8H680.363C684.713 76.95 689.063 75.45 692.513 72.6ZM810.009 129.45C804.609 117.9 823.509 114.3 823.809 126.45C824.559 142.65 866.859 135.3 840.009 117C833.259 112.5 824.709 107.85 818.559 102.75C808.959 94.65 807.309 85.95 811.059 79.35C820.059 64.05 857.859 64.2 865.809 82.8C871.059 94.2 853.509 97.8 852.009 85.95C849.909 70.5 807.609 75.45 835.809 94.8C842.709 99.45 851.109 104.4 857.109 109.5C867.009 117.75 868.959 126.15 865.209 132.75C856.809 148.05 818.709 148.5 810.009 129.45Z" fill="white"/>
<path opacity="0.4" d="M104.397 80.6168C102.367 79.6795 99.9677 80.1053 98.3841 81.6839L90.8836 89.1611C80.7022 99.3108 76.7027 103.137 71.7522 104.96C66.8022 106.783 61.2767 106.464 46.944 105.343L36.3856 104.516C34.1564 104.341 32.0541 105.573 31.1168 107.603C30.1796 109.633 30.6053 112.032 32.1839 113.616L39.6613 121.116C49.8108 131.298 53.6368 135.297 55.4599 140.247C57.2826 145.198 56.9646 150.723 55.8426 165.056L55.0157 175.615C54.8412 177.844 56.0731 179.946 58.1032 180.883C60.1331 181.82 62.5325 181.395 64.1159 179.816L71.6163 172.339C81.7981 162.189 85.7972 158.363 90.7475 156.54C95.6981 154.717 101.223 155.036 115.556 156.157L126.115 156.984C128.344 157.159 130.446 155.927 131.383 153.897C132.32 151.867 131.895 149.467 130.316 147.884L122.839 140.384C112.689 130.202 108.863 126.203 107.04 121.253C105.217 116.302 105.536 110.777 106.657 96.444L107.484 85.8855C107.659 83.6564 106.427 81.554 104.397 80.6168Z" fill="white"/>
<path d="M151.052 50.2975C149.09 49.2263 146.667 49.4901 144.981 50.959L141.559 53.9406C136.703 58.1718 135.447 59.1142 134.07 59.5191C132.692 59.924 131.126 59.8105 124.753 58.8783L120.262 58.2212C118.05 57.8977 115.87 58.9858 114.798 60.9485C113.727 62.9112 113.991 65.3334 115.46 67.0192L118.442 70.4415C122.673 75.2975 123.615 76.553 124.02 77.9307C124.424 79.3086 124.311 80.8743 123.379 87.2472L122.722 91.7384C122.398 93.9508 123.487 96.1311 125.449 97.2023C127.412 98.2735 129.834 98.0097 131.52 96.5408L134.942 93.5592C139.798 89.328 141.054 88.3856 142.432 87.9807C143.809 87.5758 145.376 87.6896 151.748 88.6215L156.239 89.2786C158.452 89.6021 160.632 88.514 161.703 86.5513C162.774 84.5886 162.51 82.1664 161.042 80.4806L158.06 77.0583C153.829 72.2026 152.886 70.9468 152.481 69.569C152.077 68.1912 152.19 66.6255 153.123 60.2526L153.779 55.7614C154.103 53.5489 153.015 51.3687 151.052 50.2975Z" fill="white" fill-opacity="0.76"/>
</svg>
