<svg width="741" height="244" viewBox="0 0 741 244" fill="none" xmlns="http://www.w3.org/2000/svg">
<path d="M117.68 216.015V126.415H177.84V142.927H136.88V163.023H170.16V178.767H136.88V199.503H179.248V216.015H117.68ZM241.282 200.783H243.33V216.015H234.114C224.77 216.015 221.826 211.535 221.954 205.263C217.346 212.559 210.69 216.783 200.45 216.783C186.242 216.783 176.002 209.999 176.002 197.455C176.002 183.503 186.498 175.567 206.21 175.567H219.266V172.367C219.266 166.479 215.042 162.639 207.49 162.639C200.45 162.639 195.714 165.839 194.946 170.703H177.538C178.818 157.903 190.594 149.455 208.002 149.455C226.434 149.455 237.058 157.647 237.058 173.391V196.687C237.058 200.143 238.466 200.783 241.282 200.783ZM219.266 188.879V187.599H206.082C198.53 187.599 194.178 190.671 194.178 196.175C194.178 200.783 197.89 203.727 203.906 203.727C213.378 203.727 219.138 197.839 219.266 188.879ZM238.28 194.127H255.432C256.072 199.887 261.064 203.855 269.896 203.855C277.448 203.855 282.056 201.423 282.056 196.815C282.056 191.439 277.576 191.055 266.952 189.647C251.592 187.855 239.688 184.399 239.688 170.831C239.688 157.775 251.08 149.199 267.976 149.327C285.64 149.327 297.8 157.135 298.696 170.575H281.416C280.904 165.327 275.912 162.127 268.616 162.127C261.576 162.127 256.968 164.687 256.968 168.911C256.968 173.903 262.6 174.415 272.072 175.567C287.176 177.103 299.72 180.559 299.72 195.407C299.72 208.463 287.432 216.783 269.768 216.783C251.464 216.783 239.048 208.207 238.28 194.127ZM317.086 216.399L291.742 150.223H310.942L326.942 197.071L342.558 150.223H361.886L332.702 225.359C328.606 236.239 325.278 241.615 315.038 241.615H297.502V226.383H307.486C312.094 226.383 313.63 225.231 315.422 220.751L317.086 216.399ZM365.418 197.199V165.455H354.538V150.223H365.418V131.791H383.466V150.223H398.57V165.455H383.466V194.255C383.466 198.863 385.258 200.783 389.994 200.783H398.954V216.015H384.234C371.69 216.015 365.418 209.743 365.418 197.199ZM429.859 216.783C407.971 216.783 394.787 203.599 394.787 183.247C394.787 162.767 408.227 149.455 428.579 149.455C448.291 149.455 461.603 161.743 461.859 181.071C461.859 182.991 461.731 185.167 461.347 187.215H413.603V188.111C413.987 197.455 420.003 203.087 429.091 203.087C436.387 203.087 441.507 199.887 443.043 193.743H460.835C458.787 206.543 447.395 216.783 429.859 216.783ZM413.987 175.439H443.683C442.403 167.375 436.899 162.895 428.707 162.895C420.899 162.895 415.011 167.631 413.987 175.439ZM499.754 150.223H502.826V166.607H495.658C484.906 166.607 480.81 173.775 480.81 183.759V216.015H462.762V150.223H479.146L480.81 160.079C484.394 154.191 489.514 150.223 499.754 150.223ZM580.647 149.455C594.215 149.455 604.967 157.135 604.967 178.255V216.015H586.919V179.279C586.919 169.423 583.335 164.303 575.527 164.303C567.719 164.303 562.471 170.063 562.471 180.047V216.015H544.423V179.279C544.423 169.423 540.839 164.303 532.903 164.303C525.095 164.303 519.975 170.319 519.975 180.175V216.015H501.927V150.223H517.671L519.335 158.415C523.303 153.295 529.063 149.583 538.663 149.455C546.727 149.327 554.279 152.271 558.375 160.591C562.983 153.551 570.663 149.455 580.647 149.455ZM604.27 194.127H621.422C622.062 199.887 627.054 203.855 635.886 203.855C643.438 203.855 648.046 201.423 648.046 196.815C648.046 191.439 643.566 191.055 632.942 189.647C617.582 187.855 605.678 184.399 605.678 170.831C605.678 157.775 617.07 149.199 633.966 149.327C651.63 149.327 663.79 157.135 664.686 170.575H647.406C646.894 165.327 641.902 162.127 634.606 162.127C627.566 162.127 622.958 164.687 622.958 168.911C622.958 173.903 628.59 174.415 638.062 175.567C653.166 177.103 665.71 180.559 665.71 195.407C665.71 208.463 653.422 216.783 635.758 216.783C617.454 216.783 605.038 208.207 604.27 194.127Z" fill="white"/>
<g clip-path="url(#clip0_55_29)">
<path opacity="0.4" d="M691.034 77.3779C688.928 77.1601 686.943 78.3658 686.06 80.3995L681.877 90.0324C676.198 103.108 673.914 108.091 670.13 111.48C666.346 114.868 661.348 116.406 648.286 120.112L638.664 122.841C636.632 123.417 635.176 125.293 635.013 127.542C634.851 129.791 636.017 131.938 637.935 132.923L647.024 137.587C659.36 143.919 664.063 146.459 667.306 150.574C670.548 154.69 672.083 160.068 675.803 174.115L678.543 184.464C679.121 186.649 680.903 188.244 683.009 188.462C685.115 188.68 687.1 187.474 687.983 185.44L692.167 175.807C697.846 162.732 700.129 157.749 703.913 154.36C707.698 150.971 712.696 149.434 725.757 145.728L735.38 142.999C737.411 142.423 738.868 140.547 739.03 138.298C739.193 136.049 738.027 133.902 736.108 132.917L727.02 128.253C714.684 121.921 709.98 119.38 706.738 115.265C703.495 111.15 701.96 105.772 698.241 91.7244L695.501 81.3757C694.922 79.1908 693.14 77.5957 691.034 77.3779Z" fill="#BB93F9"/>
</g>
<path opacity="0.4" d="M74.9185 204.417C82.8735 203.67 79.4139 204.392 91.61 201.852C95.8815 200.962 98.5705 196.526 97.6164 191.944C96.662 187.362 92.4258 184.369 88.1543 185.258C75.4239 187.909 80.1205 186.92 73.0789 187.58C66.1632 188.23 62.0387 187.612 58.7594 186.053C56.5468 185.002 54.5105 183.645 52.7067 182.032C50.114 179.716 48.0079 176.321 45.887 169.793C43.7042 163.076 41.8224 154.103 39.1289 141.169L34.0008 116.548C33.5286 114.281 32.4009 108.86 33.7871 104.389C34.6411 101.634 35.9636 99.205 37.5447 97.7789C40.0925 95.481 43.2174 93.8261 46.7523 93.0899L55.0502 91.6851C58.0722 91.1256 61.5611 90.2927 64.7466 88.6132C70.9515 85.3416 74.955 78.738 75.249 71.2896C75.3998 67.4659 74.7106 63.6807 73.9761 60.4669L71.8479 51.695C71.021 47.7245 71.2857 44.0631 72.3372 40.4923C72.9499 38.4109 74.3396 36.3332 76.4382 34.3255C79.6198 31.2811 83.995 30.3478 86.6688 29.7775C89.3418 29.2074 92.1634 28.6094 94.5225 28.1181C109.037 25.0953 114.341 24.1143 118.639 24.7902C126.088 25.9623 132.491 30.3123 136.333 36.4685C137.295 38.0101 138.187 40.1135 139.211 43.8679C140.256 47.6953 141.291 52.6434 142.776 59.7768L151.816 103.184C152.767 107.749 156.988 110.731 161.243 109.845C165.499 108.959 168.178 104.54 167.227 99.975L158.129 56.2855C156.716 49.5011 155.571 44.0037 154.362 39.5735C153.116 35.0089 151.659 31.0104 149.388 27.372C142.835 16.8735 132.235 9.9199 120.483 8.07121C113.151 6.91786 101.502 9.34735 89.1969 11.9147C66.724 16.5916 53.3756 19.3696 43.2962 25.783C27.1102 36.0821 16.0128 53.1212 13.1147 72.6452C12.1487 79.1526 12.5152 85.8498 13.6593 93.7327C14.7833 101.477 16.7504 110.922 19.2579 122.963L23.8254 144.895C26.3855 157.189 28.4586 167.145 30.9854 174.921C33.6094 182.996 37.0158 189.709 42.7966 194.873C45.7912 197.549 49.1309 199.766 52.7082 201.466C59.5333 204.71 66.7434 205.184 74.9185 204.417Z" fill="#6500FF"/>
<path fill-rule="evenodd" clip-rule="evenodd" d="M51.174 148.29C49.9733 142.665 53.5597 137.132 59.1844 135.932L90.8399 129.174C96.4646 127.973 101.998 131.56 103.199 137.184C104.4 142.809 100.813 148.342 95.188 149.543L63.5325 156.3C57.9078 157.501 52.3748 153.915 51.174 148.29Z" fill="#DCC5FF"/>
<path fill-rule="evenodd" clip-rule="evenodd" d="M43.5067 117.298C42.3207 111.743 45.862 106.28 51.4162 105.094L131.871 87.9154C137.425 86.7295 142.889 90.2706 144.075 95.825C145.261 101.379 141.72 106.843 136.165 108.029L55.7107 125.207C50.1566 126.393 44.6926 122.852 43.5067 117.298Z" fill="#CFAFFF"/>
<defs>
<clipPath id="clip0_55_29">
<rect width="114.312" height="121.747" fill="white" transform="matrix(0.999256 0.0385727 -0.0076575 0.999971 625.932 68)"/>
</clipPath>
</defs>
</svg>
