<svg width="233" height="244" viewBox="0 0 233 244" fill="none" xmlns="http://www.w3.org/2000/svg">
<g clip-path="url(#clip0_37_31)">
<path opacity="0.4" d="M93.7252 219.53C101.68 218.783 98.2205 219.504 110.417 216.964C114.688 216.075 117.377 211.639 116.423 207.057C115.469 202.474 111.232 199.481 106.961 200.371C94.2305 203.022 98.9272 202.032 91.8855 202.693C84.9698 203.342 80.8453 202.724 77.566 201.165C75.3534 200.114 73.3171 198.757 71.5134 197.145C68.9206 194.828 66.8145 191.433 64.6936 184.906C62.5108 178.188 60.629 169.215 57.9355 156.281L52.8074 131.66C52.3352 129.394 51.2076 123.972 52.5937 119.502C53.4478 116.746 54.7703 114.317 56.3514 112.891C58.8991 110.593 62.0241 108.938 65.559 108.202L73.8569 106.797C76.8788 106.238 80.3677 105.405 83.5532 103.726C89.7581 100.454 93.7617 93.8504 94.0557 86.402C94.2064 82.5783 93.5172 78.7931 92.7827 75.5793L90.6545 66.8074C89.8277 62.8369 90.0924 59.1755 91.1438 55.6047C91.7565 53.5233 93.1462 51.4456 95.2449 49.4379C98.4265 46.3935 102.802 45.4602 105.475 44.8899C108.148 44.3198 110.97 43.7218 113.329 43.2305C127.844 40.2077 133.148 39.2267 137.445 39.9026C144.895 41.0747 151.297 45.4247 155.14 51.5809C156.102 53.1225 156.993 55.2259 158.018 58.9803C159.063 62.8077 160.097 67.7558 161.583 74.8892L170.623 118.297C171.573 122.862 175.794 125.844 180.05 124.957C184.306 124.071 186.985 119.652 186.034 115.087L176.936 71.3979C175.523 64.6135 174.378 59.1161 173.169 54.6859C171.923 50.1213 170.466 46.1228 168.194 42.4844C161.642 31.9859 151.041 25.0323 139.29 23.1836C131.958 22.0303 120.309 24.4597 108.004 27.0271C85.5306 31.704 72.1822 34.482 62.1029 40.8954C45.9169 51.1945 34.8194 68.2336 31.9214 87.7576C30.9553 94.265 31.3218 100.962 32.466 108.845C33.5899 116.589 35.557 126.035 38.0645 138.075L42.6321 160.008C45.1921 172.301 47.2652 182.257 49.792 190.033C52.416 198.109 55.8224 204.821 61.6032 209.986C64.5978 212.662 67.9375 214.879 71.5148 216.578C78.3399 219.822 85.55 220.297 93.7252 219.53Z" fill="#6500FF"/>
<g clip-path="url(#clip1_37_31)">
<path opacity="0.4" d="M136.899 100.511C134.784 100.429 132.881 101.76 132.131 103.846L128.576 113.729C123.751 127.143 121.793 132.262 118.235 135.888C114.677 139.513 109.788 141.37 96.9926 145.909L87.5661 149.252C85.5759 149.958 84.2432 151.924 84.2259 154.179C84.2087 156.434 85.5105 158.501 87.4887 159.36L96.8584 163.429C109.577 168.953 114.434 171.186 117.935 175.083C121.436 178.982 123.314 184.249 127.931 198.028L131.332 208.179C132.05 210.322 133.931 211.799 136.047 211.881C138.162 211.962 140.065 210.631 140.816 208.545L144.37 198.663C149.195 185.248 151.152 180.129 154.71 176.503C158.269 172.878 163.158 171.022 175.953 166.482L185.38 163.139C187.37 162.433 188.703 160.467 188.72 158.212C188.737 155.958 187.435 153.89 185.457 153.031L176.087 148.962C163.369 143.438 158.512 141.206 155.011 137.308C151.51 133.409 149.632 128.142 145.015 114.363L141.614 104.212C140.896 102.069 139.015 100.592 136.899 100.511Z" fill="#BB93F9"/>
</g>
</g>
<defs>
<clipPath id="clip0_37_31">
<rect width="194.009" height="208.118" fill="white" transform="translate(0 39.5545) rotate(-11.764)"/>
</clipPath>
<clipPath id="clip1_37_31">
<rect width="114.312" height="121.747" fill="white" transform="matrix(0.999256 0.0385727 -0.0076575 0.999971 76.9355 99.1205)"/>
</clipPath>
</defs>
</svg>
