<svg width="207" height="241" viewBox="0 0 207 241" fill="none" xmlns="http://www.w3.org/2000/svg">
<g clip-path="url(#clip0_55_29)">
<path opacity="0.4" d="M157.034 123.378C154.928 123.16 152.943 124.366 152.06 126.399L147.877 136.032C142.198 149.108 139.914 154.091 136.13 157.48C132.346 160.868 127.348 162.406 114.286 166.112L104.664 168.841C102.632 169.417 101.176 171.293 101.013 173.542C100.851 175.791 102.017 177.938 103.935 178.923L113.024 183.587C125.36 189.919 130.063 192.459 133.306 196.574C136.548 200.69 138.083 206.068 141.803 220.115L144.543 230.464C145.121 232.649 146.903 234.244 149.009 234.462C151.115 234.68 153.1 233.474 153.983 231.44L158.167 221.807C163.846 208.732 166.129 203.749 169.913 200.36C173.698 196.971 178.696 195.434 191.757 191.728L201.38 188.999C203.411 188.423 204.868 186.547 205.03 184.298C205.193 182.049 204.027 179.902 202.108 178.917L193.02 174.253C180.684 167.921 175.98 165.38 172.738 161.265C169.495 157.15 167.96 151.772 164.241 137.724L161.501 127.376C160.922 125.191 159.14 123.596 157.034 123.378Z" fill="#BB93F9"/>
</g>
<path opacity="0.4" d="M74.9185 204.417C82.8735 203.67 79.4139 204.392 91.61 201.852C95.8815 200.962 98.5705 196.526 97.6164 191.944C96.662 187.362 92.4258 184.369 88.1543 185.258C75.4239 187.909 80.1205 186.92 73.0789 187.58C66.1632 188.23 62.0387 187.612 58.7594 186.053C56.5468 185.002 54.5105 183.645 52.7067 182.032C50.114 179.716 48.0079 176.321 45.887 169.793C43.7042 163.076 41.8224 154.103 39.1289 141.169L34.0008 116.548C33.5286 114.281 32.4009 108.86 33.7871 104.389C34.6411 101.634 35.9636 99.205 37.5447 97.7789C40.0925 95.481 43.2174 93.8261 46.7523 93.0899L55.0502 91.6851C58.0722 91.1256 61.5611 90.2927 64.7466 88.6132C70.9515 85.3416 74.955 78.738 75.249 71.2896C75.3998 67.4659 74.7106 63.6807 73.9761 60.4669L71.8479 51.695C71.021 47.7245 71.2857 44.0631 72.3372 40.4923C72.9499 38.4109 74.3396 36.3332 76.4382 34.3255C79.6198 31.2811 83.995 30.3478 86.6688 29.7775C89.3418 29.2074 92.1634 28.6094 94.5225 28.1181C109.037 25.0953 114.341 24.1143 118.639 24.7902C126.088 25.9623 132.491 30.3123 136.333 36.4685C137.295 38.0101 138.187 40.1135 139.211 43.8679C140.256 47.6953 141.291 52.6434 142.776 59.7768L151.816 103.184C152.767 107.749 156.988 110.731 161.243 109.845C165.499 108.959 168.178 104.54 167.227 99.975L158.129 56.2855C156.716 49.5011 155.571 44.0037 154.362 39.5735C153.116 35.0089 151.659 31.0104 149.388 27.372C142.835 16.8735 132.235 9.9199 120.483 8.07121C113.151 6.91786 101.502 9.34735 89.1969 11.9147C66.724 16.5916 53.3756 19.3696 43.2962 25.783C27.1102 36.0821 16.0128 53.1212 13.1147 72.6452C12.1487 79.1526 12.5152 85.8498 13.6593 93.7327C14.7833 101.477 16.7504 110.922 19.2579 122.963L23.8254 144.895C26.3855 157.189 28.4586 167.145 30.9854 174.921C33.6094 182.996 37.0158 189.709 42.7966 194.873C45.7912 197.549 49.1309 199.766 52.7082 201.466C59.5333 204.71 66.7434 205.184 74.9185 204.417Z" fill="#6500FF"/>
<path fill-rule="evenodd" clip-rule="evenodd" d="M51.174 148.29C49.9733 142.665 53.5597 137.132 59.1844 135.932L90.8399 129.174C96.4646 127.973 101.998 131.56 103.199 137.184C104.4 142.809 100.813 148.342 95.188 149.543L63.5325 156.3C57.9078 157.501 52.3748 153.915 51.174 148.29Z" fill="#DCC5FF"/>
<path fill-rule="evenodd" clip-rule="evenodd" d="M43.5067 117.298C42.3207 111.743 45.862 106.28 51.4162 105.094L131.871 87.9154C137.425 86.7295 142.889 90.2706 144.075 95.825C145.261 101.379 141.72 106.843 136.165 108.029L55.7107 125.207C50.1566 126.393 44.6926 122.852 43.5067 117.298Z" fill="#CFAFFF"/>
<defs>
<clipPath id="clip0_55_29">
<rect width="114.312" height="121.747" fill="white" transform="matrix(0.999256 0.0385727 -0.0076575 0.999971 91.9316 114)"/>
</clipPath>
</defs>
</svg>
